<?xml version="1.0" encoding="utf-8"?>
<svg viewBox="-119.047 -52.995 741.935 664.362" xmlns="http://www.w3.org/2000/svg">
  <circle cx="118.064" cy="180.547" r="38.832" fill="#2f2e41" style="" transform="matrix(0.873614, 0, 0, 0.922809, -108.434746, -145.052902)"/>
  <circle cx="809.749" cy="252.599" r="27.907" transform="matrix(0.873263, -0.026137, 0.024743, 0.922439, -718.638123, -180.069122)" fill="#ffb6b6" style=""/>
  <path d="M -3.016 -11.044 L -12.899 -10.749 C -25.867 -10.349 -36.081 1.065 -35.729 14.764 L -35.722 14.995 L -35.542 15.114 C -30.17 18.869 -23.83 20.774 -17.392 20.57 L -16.836 20.553 L -11.375 20.291 C -10.457 17.793 -10.15 15.09 -10.482 12.433 C -9.658 14.951 -9.014 17.533 -8.557 20.153 L 15.945 18.975 C 18.91 18.82 21.217 16.196 21.144 13.062 C 20.762 -0.637 9.952 -11.421 -3.016 -11.044 Z" fill="#2f2e41" style=""/>
  <path d="M -22.71 -11.128 C -24.941 -8.222 -28.522 -7.011 -31.741 -5.438 C -43.268 0.321 -51.361 11.72 -53.367 25.022 C -54.125 30.358 -53.861 35.849 -55.144 41.067 C -56.42 46.285 -59.786 51.467 -64.787 52.515 C -68.171 53.231 -71.618 51.946 -74.854 50.673 C -76.633 49.978 -78.413 49.281 -80.192 48.581 C -78.488 43.662 -76.785 38.742 -75.087 33.824 C -77.903 38.503 -81.21 42.831 -84.943 46.729 C -91.32 44.232 -97.703 41.736 -104.092 39.24 C -88.55 38.837 -91.629 22.982 -88.581 6.889 C -86.906 -1.953 -70.793 -8.389 -67.827 -16.844 C -61.371 -35.318 -38.404 -39.481 -26.486 -24.339 C -25.542 -23.138 -24.703 -21.849 -23.981 -20.487 C -20.754 -19.24 -20.521 -13.997 -22.71 -11.128 Z" fill="#2f2e41" style=""/>
  <circle cx="99.905" cy="142.216" r="14.46" fill="#2f2e41" style="" transform="matrix(0.873614, 0, 0, 0.922809, -108.434746, -145.052902)"/>
  <title>working remotely</title>
  <path d="M -37.427 341.365 L -37.777 343.594 L -43.463 379.626 C -58.286 387.307 -69.816 379.926 -69.917 379.626 L -77.081 343.425 L -77.488 341.365 L -37.427 341.365 Z" fill="#3f3d56" style=""/>
  <path d="M -37.427 341.365 L -37.777 343.594 C -54.477 350.81 -72.292 345.194 -77.081 343.425 L -77.488 341.365 L -37.427 341.365 Z" opacity="0.1" style=""/>
  <path d="M -78.323 339.408 L -78.323 342.658 C -78.323 342.658 -56.236 352.201 -36.334 342.658 L -36.334 339.408 L -78.323 339.408 Z" fill="#06b6d4" style=""/>
  <path d="M -75.756 335.114 C -75.756 335.114 -76.399 337.309 -78.323 337.5 L -78.323 340.266 L -36.334 340.266 L -36.334 337.787 C -36.334 337.787 -38.901 337.309 -38.521 335.114 L -75.756 335.114 Z" fill="#06b6d4" style=""/>
  <ellipse cx="-57.456" cy="335.351" rx="18.939" ry="4.056" fill="#06b6d4" style=""/>
  <ellipse cx="-57.456" cy="335.351" rx="18.939" ry="4.056" opacity="0.1" style=""/>
  <path d="M -40.83 335.114 C -40.83 336.74 -48.012 338.072 -56.879 338.072 L -57.35 338.072 C -63.303 338.039 -68.447 337.423 -71.071 336.499 C -72.257 336.083 -72.93 335.612 -72.93 335.114 C -72.93 334.289 -71.093 333.542 -68.119 333.005 C -64.423 332.405 -60.647 332.12 -56.865 332.157 C -48.012 332.157 -40.83 333.48 -40.83 335.114 Z" opacity="0.1" style=""/>
  <path d="M -57.35 338.072 C -63.303 338.039 -68.447 337.423 -71.071 336.499 L -68.132 332.992 L -57.35 338.072 Z" opacity="0.1" style=""/>
  <path d="M -74.125 335.343 C -74.352 335.306 -74.654 335.365 -74.697 335.534 C -74.703 335.62 -74.673 335.705 -74.61 335.778 C -74.109 336.367 -73.38 336.83 -72.519 337.107 C -72.372 337.168 -72.21 337.207 -72.042 337.221 C -71.864 337.237 -71.69 337.17 -71.605 337.052 C -71.557 336.952 -71.567 336.842 -71.636 336.75 C -71.77 336.574 -71.955 336.422 -72.178 336.307 C -72.765 335.966 -73.363 335.437 -74.125 335.343 Z" opacity="0.1" style=""/>
  <circle cx="561.349" cy="1004.986" r="25.83" fill="#06b6d4" style="" transform="matrix(0.437391, 0, 0, 0.325021, -302.345062, 35.045692)"/>
  <title>video_influencer</title>
  <path d="M 139.709 12.555 C 134.495 27.228 126.499 40.598 110.205 40.598 C 93.91 40.598 81.618 28.018 80.7 12.555 C 79.527 -7.204 93.534 -15.572 110.205 -15.49 C 129.898 -15.393 145.897 -4.859 139.709 12.555 Z" fill="#2f2e41" style=""/>
  <rect x="85.863" y="8.825" width="48.26" height="66.85" fill="#2f2e41" style=""/>
  <path d="M 102.794 47.207 C 102.794 47.207 104.337 68.238 100.736 71.66 C 97.134 75.084 132.637 78.019 132.122 74.105 C 131.608 70.193 124.918 44.762 126.976 39.382 C 129.036 34.003 102.794 47.207 102.794 47.207 Z" fill="#ffb8b8" style=""/>
  <path d="M 102.794 47.207 C 102.794 47.207 104.337 68.238 100.736 71.66 C 97.134 75.084 132.637 78.019 132.122 74.105 C 131.608 70.193 124.918 44.762 126.976 39.382 C 129.036 34.003 102.794 47.207 102.794 47.207 Z" opacity="0.1" style=""/>
  <circle cx="413.1465" cy="208.46379" r="44.68548" fill="#ffb8b8" transform="matrix(0.51816, 0, 0, 0.49251, -105.107468, -70.135643)" style=""/>
  <path d="M 133.666 67.748 C 133.666 67.748 125.434 75.084 116.172 73.616 C 106.911 72.15 103.021 61.444 103.021 61.444 L 94.046 67.748 C 94.046 67.748 91.473 85.354 103.309 87.311 C 115.143 89.267 132.122 89.756 135.724 87.311 C 139.326 84.865 133.666 67.748 133.666 67.748 Z" fill="#3f3d56" style=""/>
  <circle cx="415.53311" cy="100.46451" r="22.47685" fill="#2f2e41" transform="matrix(0.51816, 0, 0, 0.49251, -105.107468, -70.135643)" style=""/>
  <path d="M 96.229 -26.56 C 96.229 -32.244 100.76 -37.006 106.71 -37.573 C 106.327 -37.61 105.939 -37.63 105.546 -37.63 C 96.581 -37.63 90.978 -28.404 95.46 -21.025 C 97.54 -17.6 101.385 -15.49 105.546 -15.49 C 105.939 -15.49 106.327 -15.509 106.71 -15.546 C 100.76 -16.115 96.229 -20.875 96.229 -26.56 Z" fill="#2f2e41" style=""/>
  <path d="M 98.566 5.574 C 98.566 5.574 98.323 4.288 88.812 7.679 C 79.301 11.068 73.598 36.086 78.355 50.776 C 80.271 56.696 78.711 60.965 76.167 63.951 C 66.619 75.16 70.377 91.992 84.286 97.756 C 84.679 97.918 85.08 98.08 85.488 98.239 L 91.432 101.629 C 91.432 101.629 83.854 92.152 87.647 80.028 C 90.94 69.698 91.346 58.732 88.827 48.207 C 88.392 46.432 87.898 44.602 87.336 42.734 C 82.581 26.914 84.894 28.74 101.538 12.92 C 101.538 12.92 111.049 19.7 119.371 23.091 C 127.694 26.481 134.827 29.87 128.882 41.171 C 122.938 52.471 108.672 62.641 118.183 77.333 C 127.694 92.024 128.882 86.373 127.694 92.024 L 126.505 97.674 L 133.639 90.894 L 128.882 99.934 C 128.882 99.934 144.339 99.934 149.094 88.633 L 151.472 90.894 C 151.472 90.894 160.983 75.073 143.15 60.383 C 143.15 60.383 137.206 56.992 145.527 45.691 C 153.851 34.391 147.458 10.095 136.757 5.574 C 126.058 1.054 98.566 5.574 98.566 5.574 Z" fill="#2f2e41" style=""/>
  <path d="M -13.029 115.484 C -12.92 115.379 -12.807 115.287 -12.7 115.179 C -5.854 108.325 -4.465 98.6 -9.601 93.459 C -14.454 88.6 -23.392 89.581 -30.139 95.488 C -35.924 89.974 -43.681 88.437 -48.702 92.243 C -54.491 96.633 -54.446 106.456 -48.6 114.184 C -48.2 114.713 -47.78 115.213 -47.349 115.695 C -63.284 121.534 -73.88 136.715 -73.88 153.703 L -73.88 192.223 C -73.88 196.974 -70.033 200.824 -65.288 200.824 L 5.824 200.824 C 10.409 200.824 14.127 197.102 14.127 192.512 L 14.127 153.703 C 14.125 136.474 3.227 121.137 -13.029 115.484 Z" fill="#2f2e41" style=""/>
  <circle cx="600.086" cy="381.778" r="33.764" transform="matrix(0.706699, -0.707514, 0.706699, 0.707514, -724.005742, 319.025197)" fill="#ffb6b6" style=""/>
  <g transform="matrix(1.137672, 0, 0, 1, -173.019516, -151.305664)" style="">
    <path d="M 280.62 172.582 C 280.467 171.088 279.132 169.946 277.534 169.943 L 274.416 169.943 L 274.416 189.235 L 277.534 189.235 C 279.132 189.231 280.467 188.09 280.62 186.597 C 283.814 185.788 286.034 183.07 286.036 179.965 L 286.036 179.214 C 286.034 176.108 283.814 173.389 280.62 172.582 Z" fill="#06b6d4" style=""/>
    <path d="M 224.28 186.84 L 220.834 186.84 C 216.789 186.84 213.511 183.762 213.511 179.965 L 213.511 179.214 C 213.511 175.416 216.789 172.338 220.834 172.338 L 224.28 172.338 L 224.28 186.84 Z" fill="#06b6d4" style=""/>
    <path d="M 225.131 189.235 L 222.013 189.235 C 220.291 189.235 218.896 187.925 218.896 186.308 L 218.896 172.869 C 218.896 171.254 220.291 169.943 222.013 169.943 L 225.131 169.943 L 225.131 189.235 Z" fill="#06b6d4" style=""/>
    <path d="M 278.951 173.347 L 276.666 173.347 C 276.666 158.195 264.707 145.866 250.008 145.866 C 235.308 145.866 223.349 158.195 223.349 173.347 L 221.064 173.347 C 221.064 157.011 234.048 143.722 250.008 143.722 C 265.967 143.722 278.951 157.011 278.951 173.347 Z" fill="#06b6d4" style=""/>
  </g>
  <path d="M -64.211 141.948 C -56.5 147.268 -47.347 150.1 -37.982 150.063 C -41.323 152.382 -45.125 153.949 -49.129 154.654 C -36.677 157.328 -23.809 157.4 -11.328 154.867 C -8.553 154.422 -5.876 153.501 -3.414 152.146 C -0.933 150.759 0.843 148.381 1.47 145.606 C 2.3 140.862 -1.392 136.553 -5.229 133.649 C -17.124 124.782 -32.368 121.732 -46.755 125.341 C -51.393 126.542 -56.04 128.569 -59.053 132.299 C -62.066 136.029 -62.959 141.779 -60.088 145.619 L -64.211 141.948 Z" fill="#2f2e41" style=""/>
  <polygon points="260.925 70.119 260.925 70.119 260.925 70.119 260.925 70.119" fill="#f2f2f2"/>
  <polygon points="678.256 -51.564 678.256 -51.564 678.256 -51.564 678.256 -51.564" fill="#f2f2f2"/>
  <polygon points="247.256 259.436 247.256 259.436 247.256 259.436 247.256 259.436" fill="#f2f2f2"/>
  <polygon points="480.53 -13.097 480.53 -13.097 480.53 -13.097 480.53 -13.097" fill="#f2f2f2"/>
  <polygon points="665.53 200.903 665.53 200.903 665.53 200.903 665.53 200.903" fill="#f2f2f2"/>
  <g id="Group_4" data-name="Group 4" transform="matrix(1, 0, 0, 1, -65.29174, -285.247589)" style="">
    <g id="Group_1" data-name="Group 1" transform="matrix(1, 0, 0, 1, -877.732605, 498.262146)">
      <circle id="Ellipse_3" data-name="Ellipse 3" cx="1171.745" cy="-203.478" r="27.936" fill="#ffb8b8"/>
      <path id="Path_29-1042" data-name="Path 29" d="M 1137.873 -219.259 L 1182.232 -219.259 L 1182.232 -238.595 C 1172.496 -242.463 1162.968 -245.753 1157.209 -238.595 C 1146.53 -238.595 1137.873 -229.938 1137.873 -219.259 Z" fill="#2f2e41"/>
      <path id="Path_30-1043" data-name="Path 30" d="M 1184.688 -242.007 C 1211.207 -242.007 1218.629 -208.767 1218.629 -190.014 C 1218.629 -179.556 1213.9 -175.814 1206.467 -174.55 L 1203.842 -188.55 L 1197.695 -173.95 C 1195.607 -173.94 1193.414 -173.98 1191.14 -174.022 L 1189.056 -178.314 L 1184.408 -174.099 C 1165.792 -174.071 1150.747 -171.358 1150.747 -190.016 C 1150.747 -208.766 1157.257 -242.007 1184.688 -242.007 Z" fill="#2f2e41"/>
    </g>
    <g id="Group_2" data-name="Group 2" transform="matrix(1, 0, 0, 1, 177.087677, -85.655899)">
      <path id="Path_53-1044" data-name="Path 53" d="M820.737,295.13V269.263a2.333,2.333,0,0,0-2.333-2.333h-4.666a2.333,2.333,0,0,0-2.333,2.333V293.57a14.745,14.745,0,1,0,9.331,1.56Z" transform="translate(-688.018 71.866)" fill="#06b6d4"/>
      <circle id="Ellipse_8" data-name="Ellipse 8" cx="6.998" cy="6.998" r="6.998" transform="translate(119.5 373.01)" fill="#fff"/>
    </g>
  </g>
  <circle cx="543.84609" cy="86.99416" r="10.30833" fill="#2f2e41" transform="matrix(1.146058, 0, 0, 1.116059, -249.993073, -100.269897)" style=""/>
  <path d="M 362.135 1.005 C 356.747 -5.945 360.932 -15.978 369.769 -17.301 C 360.681 -17.544 354.73 -8.115 359.057 -0.328 C 361.432 3.944 366.307 6.303 371.238 5.566 C 367.649 5.475 364.297 3.796 362.135 1.005 Z" fill="#2f2e41" style=""/>
  <circle cx="533.16701" cy="123.46982" r="30.28074" fill="#2f2e41" transform="matrix(1.146058, 0, 0, 1.116059, -249.993073, -100.269897)" style=""/>
  <path d="M 328.711 25.219 C 336.518 8.665 356.395 1.117 373.648 8.155 C 373.298 7.985 372.95 7.811 372.591 7.651 C 348.313 -3.204 321.073 15.606 323.558 41.508 C 324.712 53.53 332.364 64.039 343.631 69.077 C 343.99 69.237 344.352 69.381 344.713 69.528 C 327.986 61.374 320.908 41.774 328.711 25.219 Z" fill="#2f2e41" style=""/>
  <circle cx="533.26194" cy="133.19644" r="20.34496" fill="#ffb8b8" transform="matrix(1.146058, 0, 0, 1.116059, -249.993073, -100.269897)" style=""/>
  <polygon points="339.632 24.644 339.632 49.925 345.646 49.925 353.297 41.942 352.272 49.925 378.847 49.925 377.208 41.942 380.487 49.925 384.723 49.925 384.723 24.644 339.632 24.644" fill="#2f2e41" style=""/>
  <path d="M 144.91 175.504 C 139.696 190.177 131.7 203.547 115.406 203.547 C 99.111 203.547 86.819 190.967 85.901 175.504 C 84.728 155.745 98.735 147.377 115.406 147.459 C 135.099 147.556 151.098 158.09 144.91 175.504 Z" fill="#2f2e41" style=""/>
  <rect x="91.064" y="171.774" width="48.26" height="66.85" fill="#2f2e41" style=""/>
  <path d="M 107.995 210.156 C 107.995 210.156 109.538 231.187 105.937 234.609 C 102.335 238.033 137.838 240.968 137.323 237.054 C 136.809 233.142 130.119 207.711 132.177 202.331 C 134.237 196.952 107.995 210.156 107.995 210.156 Z" fill="#ffb8b8" style=""/>
  <path d="M 107.995 210.156 C 107.995 210.156 109.538 231.187 105.937 234.609 C 102.335 238.033 137.838 240.968 137.323 237.054 C 136.809 233.142 130.119 207.711 132.177 202.331 C 134.237 196.952 107.995 210.156 107.995 210.156 Z" opacity="0.1" style=""/>
  <circle cx="413.1465" cy="208.46379" r="44.68548" fill="#ffb8b8" transform="matrix(0.51816, 0, 0, 0.49251, -99.906837, 92.813354)" style=""/>
  <path d="M 138.867 230.697 C 138.867 230.697 130.635 238.033 121.373 236.565 C 112.112 235.099 108.222 224.393 108.222 224.393 L 99.247 230.697 C 99.247 230.697 96.674 248.303 108.51 250.26 C 120.344 252.216 137.323 252.705 140.925 250.26 C 144.527 247.814 138.867 230.697 138.867 230.697 Z" fill="#3f3d56" style=""/>
  <circle cx="415.53311" cy="100.46451" r="22.47685" fill="#2f2e41" transform="matrix(0.51816, 0, 0, 0.49251, -99.906837, 92.813354)" style=""/>
  <path d="M 106.839 167.755 C 106.839 167.755 106.596 166.469 97.085 169.86 C 87.574 173.249 81.871 198.267 86.628 212.957 C 88.544 218.877 86.984 223.146 84.44 226.132 C 74.892 237.341 78.65 254.173 92.559 259.937 C 92.952 260.099 93.353 260.261 93.761 260.42 L 99.705 263.81 C 99.705 263.81 92.127 254.333 95.92 242.209 C 99.213 231.879 99.619 220.913 97.1 210.388 C 96.665 208.613 96.171 206.783 95.609 204.915 C 90.854 189.095 93.167 190.921 109.811 175.101 C 109.811 175.101 119.322 181.881 127.644 185.272 C 135.967 188.662 143.1 192.051 137.155 203.352 C 131.211 214.652 116.945 224.822 126.456 239.514 C 135.967 254.205 137.155 248.554 135.967 254.205 L 134.778 259.855 L 141.912 253.075 L 137.155 262.115 C 137.155 262.115 152.612 262.115 157.367 250.814 L 159.745 253.075 C 159.745 253.075 169.256 237.254 151.423 222.564 C 151.423 222.564 145.479 219.173 153.8 207.872 C 162.124 196.572 155.731 172.276 145.03 167.755 C 134.331 163.235 106.839 167.755 106.839 167.755 Z" fill="#2f2e41" style=""/>
  <circle cx="486.732" cy="-2.344" r="10.308" fill="#2f2e41" style="" transform="matrix(1.170323, 0, 0, 1.116059, -75.487404, 1.741012)"/>
  <path d="M 482.758 3.309 C 477.256 -3.641 481.53 -13.674 490.554 -14.997 C 481.274 -15.24 475.196 -5.811 479.615 1.975 C 482.04 6.249 487.019 8.607 492.055 7.869 C 488.389 7.779 484.966 6.1 482.758 3.309 Z" fill="#2f2e41" style=""/>
  <circle cx="476.053" cy="34.131" r="30.281" fill="#2f2e41" style="" transform="matrix(1.170323, 0, 0, 1.116059, -75.487404, 1.741012)"/>
  <path d="M 448.628 27.523 C 456.599 10.969 476.897 3.422 494.515 10.46 C 494.158 10.289 493.802 10.115 493.436 9.955 C 468.644 -0.9 440.826 17.909 443.365 43.812 C 444.543 55.834 452.357 66.343 463.863 71.381 C 464.229 71.54 464.599 71.684 464.968 71.832 C 447.887 63.678 440.659 44.079 448.628 27.523 Z" fill="#2f2e41" style=""/>
  <circle cx="476.148" cy="43.858" r="20.345" fill="#ffb8b8" style="" transform="matrix(1.170323, 0, 0, 1.116059, -75.487404, 1.741012)"/>
  <polygon points="459.78 26.947 459.78 52.228 465.92 52.228 473.733 44.245 472.687 52.228 499.824 52.228 498.151 44.245 501.499 52.228 505.825 52.228 505.825 26.947 459.78 26.947" fill="#2f2e41" style=""/>
  <path d="M 510.59 44.392 C 510.447 42.974 509.2 41.89 507.705 41.888 L 504.791 41.888 L 504.791 60.202 L 507.705 60.202 C 509.2 60.2 510.447 59.116 510.59 57.698 C 513.576 56.931 515.651 54.35 515.653 51.401 L 515.653 50.688 C 515.651 47.74 513.576 45.159 510.59 44.392 Z" fill="#06b6d4" style=""/>
  <path d="M 457.932 57.929 L 454.711 57.929 C 450.93 57.929 447.866 55.007 447.866 51.401 L 447.866 50.688 C 447.866 47.083 450.93 44.161 454.711 44.161 L 457.932 44.161 L 457.932 57.929 Z" fill="#06b6d4" style=""/>
  <path d="M 458.727 60.202 L 455.813 60.202 C 454.204 60.202 452.899 58.958 452.899 57.423 L 452.899 44.666 C 452.899 43.131 454.204 41.888 455.813 41.888 L 458.727 41.888 L 458.727 60.202 Z" fill="#06b6d4" style=""/>
  <path d="M 509.03 45.119 L 506.894 45.119 C 506.894 30.734 495.718 19.03 481.978 19.03 C 468.239 19.03 457.062 30.734 457.062 45.119 L 454.926 45.119 C 454.926 29.611 467.061 16.993 481.978 16.993 C 496.895 16.993 509.03 29.611 509.03 45.119 Z" fill="#06b6d4" style=""/>
  <g transform="matrix(1.137672, 0, 0, 1, -313.986145, 89.409729)" style="">
    <path d="M 280.62 172.582 C 280.467 171.088 279.132 169.946 277.534 169.943 L 274.416 169.943 L 274.416 189.235 L 277.534 189.235 C 279.132 189.231 280.467 188.09 280.62 186.597 C 283.814 185.788 286.034 183.07 286.036 179.965 L 286.036 179.214 C 286.034 176.108 283.814 173.389 280.62 172.582 Z" fill="#06b6d4" style=""/>
    <path d="M 224.28 186.84 L 220.834 186.84 C 216.789 186.84 213.511 183.762 213.511 179.965 L 213.511 179.214 C 213.511 175.416 216.789 172.338 220.834 172.338 L 224.28 172.338 L 224.28 186.84 Z" fill="#06b6d4" style=""/>
    <path d="M 225.131 189.235 L 222.013 189.235 C 220.291 189.235 218.896 187.925 218.896 186.308 L 218.896 172.869 C 218.896 171.254 220.291 169.943 222.013 169.943 L 225.131 169.943 L 225.131 189.235 Z" fill="#06b6d4" style=""/>
    <path d="M 278.951 173.347 L 276.666 173.347 C 276.666 158.195 264.707 145.866 250.008 145.866 C 235.308 145.866 223.349 158.195 223.349 173.347 L 221.064 173.347 C 221.064 157.011 234.048 143.722 250.008 143.722 C 265.967 143.722 278.951 157.011 278.951 173.347 Z" fill="#06b6d4" style=""/>
  </g>
  <path d="M 126.968 301.615 L 95.772 302.396 L 74.071 313.247 L 76.784 375.638 L 71.524 423.416 C 71.524 423.416 69.558 430.904 83.122 437.686 C 87.462 439.856 93.053 440.776 98.649 441.024 C 110.109 441.395 121.352 437.84 130.515 430.947 C 133.359 428.863 136.511 427.469 139.175 428.535 C 145.957 431.248 147.313 423.11 147.313 423.11 L 139.175 383.776 L 151.382 346.374 L 139.053 306.222 L 126.968 301.615 Z" fill="#06b6d4"/>
  <path d="M 56.905 456.394 C 61.581 453.842 62.813 447.683 59.48 443.528 L 68.877 426.381 L 59.85 418.128 L 46.918 442.53 C 42.038 447.007 43.835 455.089 50.153 457.076 C 52.402 457.784 54.843 457.537 56.905 456.394 Z" fill="#ffb7b7"/>
  <path d="M 80.853 313.247 L 77.202 311.458 C 77.202 311.458 68.646 313.247 65.933 318.672 C 63.221 324.098 56.439 379.707 56.439 379.707 L 51.014 416.328 C 51.014 416.328 46.945 416.328 46.945 420.397 C 46.945 424.466 41.519 435.317 45.588 435.317 C 49.657 435.317 65.933 435.317 68.646 432.604 C 71.358 429.891 76.784 419.041 75.428 417.685 C 74.071 416.328 71.359 416.328 71.359 416.328 L 75.175 379.614 L 80.853 313.247 Z" fill="#06b6d4"/>
  <path d="M 153.748 443.647 C 149.87 439.995 150.236 433.725 154.513 430.549 L 149.76 411.581 L 160.583 405.881 L 166.918 432.762 C 170.506 438.328 166.723 445.692 160.108 446.016 C 157.753 446.131 155.453 445.275 153.748 443.647 Z" fill="#ffb7b7"/>
  <path d="M 140.135 367.614 L 143.951 404.328 C 143.951 404.328 141.239 404.328 139.882 405.684 C 138.526 407.041 143.951 417.891 146.664 420.604 C 149.377 423.317 165.653 423.317 169.722 423.317 C 173.791 423.317 168.365 412.466 168.365 408.397 C 168.365 404.328 164.296 404.328 164.296 404.328 L 158.871 367.707 C 158.871 367.707 152.089 318.098 149.377 312.672 C 146.664 307.247 138.108 305.458 138.108 305.458 L 134.457 307.247 L 140.135 367.614 Z" fill="#06b6d4"/>
  <polygon points="238.109 525.788 226.922 525.788 221.6 482.636 238.111 482.636 238.109 525.788" fill="#ffb7b7"/>
  <path d="M 240.962 536.633 L 204.889 536.632 L 204.889 536.176 C 204.889 528.421 211.175 522.135 218.929 522.135 L 218.93 522.135 L 240.963 522.136 L 240.962 536.633 Z" fill="#2f2e41"/>
  <polygon points="334.228 509.434 324.848 515.532 296.864 482.255 310.708 473.255 334.228 509.434" fill="#ffb7b7"/>
  <path d="M 342.531 516.971 L 312.286 536.633 L 312.038 536.251 C 307.811 529.749 309.655 521.053 316.156 516.826 L 316.157 516.825 L 334.629 504.817 L 342.531 516.971 Z" fill="#2f2e41"/>
  <polygon points="292.758 303.542 314.459 416.118 342.942 500.209 296.827 509.704 252.068 341.519 250.711 502.923 192.389 504.279 205.953 407.979 222.42 299.26 292.758 303.542" fill="#2f2e41"/>
</svg>