<?xml version="1.0" encoding="utf-8"?>
<svg viewBox="-119.047 -52.995 726.574 472.35" xmlns="http://www.w3.org/2000/svg">
  <circle cx="118.064" cy="180.547" r="38.832" fill="#2f2e41" style="" transform="matrix(0.873614, 0, 0, 0.922809, 11.380928, 18.54155)"/>
  <circle cx="809.749" cy="252.599" r="27.907" transform="matrix(0.873263, -0.026137, 0.024743, 0.922439, -598.822449, -16.474672)" fill="#ffb6b6" style=""/>
  <path d="M 116.8 152.55 L 106.917 152.845 C 93.949 153.245 83.735 164.659 84.087 178.358 L 84.094 178.589 L 84.274 178.708 C 89.646 182.463 95.986 184.368 102.424 184.164 L 102.98 184.147 L 108.441 183.885 C 109.359 181.387 109.666 178.684 109.334 176.027 C 110.158 178.545 110.802 181.127 111.259 183.747 L 135.761 182.569 C 138.726 182.414 141.033 179.79 140.96 176.656 C 140.578 162.957 129.768 152.173 116.8 152.55 Z" fill="#2f2e41" style=""/>
  <path d="M 97.106 152.466 C 94.875 155.372 91.294 156.583 88.075 158.156 C 76.548 163.915 68.455 175.314 66.449 188.616 C 65.691 193.952 65.955 199.443 64.672 204.661 C 63.396 209.879 60.03 215.061 55.029 216.109 C 51.645 216.825 48.198 215.54 44.962 214.267 C 43.183 213.572 41.403 212.875 39.624 212.175 C 41.328 207.256 43.031 202.336 44.729 197.418 C 41.913 202.097 38.606 206.425 34.873 210.323 C 28.496 207.826 22.113 205.33 15.724 202.834 C 31.266 202.431 28.187 186.576 31.235 170.483 C 32.91 161.641 49.023 155.205 51.989 146.75 C 58.445 128.276 81.412 124.113 93.33 139.255 C 94.274 140.456 95.113 141.745 95.835 143.107 C 99.062 144.354 99.295 149.597 97.106 152.466 Z" fill="#2f2e41" style=""/>
  <circle cx="99.905" cy="142.216" r="14.46" fill="#2f2e41" style="" transform="matrix(0.873614, 0, 0, 0.922809, 11.380928, 18.54155)"/>
  <path d="M689.063,372.583a122.04116,122.04116,0,0,1,10.10051-38.51722q2.27961-5.09249,5.01812-9.96076a.7438.7438,0,0,0-1.28354-.75026,123.7286,123.7286,0,0,0-13.7678,37.98231q-1.03367,5.58355-1.55378,11.24593c-.08811.95214,1.39893.94613,1.48649,0Z" transform="matrix(1, 0, 0, 1, -354.480277, -262.084184)" fill="#e6e6e6"/>
  <circle cx="435.2819" cy="73.9144" r="9.4144" fill="#e6e6e6" transform="matrix(1, 0, 0, 1, -81.980277, -18.923951)"/>
  <path d="M690.026,372.83307a79.17357,79.17357,0,0,1,6.55267-24.98791q1.47888-3.30374,3.25549-6.462a.48254.48254,0,0,0-.83269-.48673,80.26825,80.26825,0,0,0-8.93182,24.6409q-.67059,3.6223-1.008,7.29575c-.05716.6177.90755.6138.96436,0Z" transform="matrix(1, 0, 0, 1, -354.480277, -262.084184)" fill="#e6e6e6"/>
  <circle cx="429.66984" cy="93.66195" r="6.10756" fill="#e6e6e6" transform="matrix(1, 0, 0, 1, -81.980277, -18.923951)"/>
  <path d="M688.80883,372.25653a79.17368,79.17368,0,0,1-10.2024-23.73277q-.86592-3.51453-1.40764-7.09749a.48253.48253,0,0,0-.95592.12838,80.26823,80.26823,0,0,0,8.11306,24.92247q1.69918,3.26856,3.69253,6.37254c.33485.5222,1.09311-.07422.76037-.59313Z" transform="matrix(1, 0, 0, 1, -354.480277, -262.084184)" fill="#e6e6e6"/>
  <circle cx="403.73518" cy="93.23322" r="6.10756" fill="#e6e6e6" transform="matrix(1, 0, 0, 1, -81.980277, -18.923951)"/>
  <path d="M670.05906,377.66024v-12a4.50508,4.50508,0,0,1,4.5-4.5h28a4.50508,4.50508,0,0,1,4.5,4.5v12a4.50508,4.50508,0,0,1-4.5,4.5h-28A4.50508,4.50508,0,0,1,670.05906,377.66024Z" transform="matrix(1, 0, 0, 1, -354.480277, -262.084184)" fill="#f2f2f2" style="isolation:isolate"/>
  <path d="M701.55906,301.16024h-12a4.50507,4.50507,0,0,1-4.5-4.5v-49a4.50508,4.50508,0,0,1,4.5-4.5h12a4.50508,4.50508,0,0,1,4.5,4.5v49A4.50508,4.50508,0,0,1,701.55906,301.16024Z" transform="matrix(1, 0, 0, 1, -354.480277, -262.084184)" fill="#f2f2f2" style="isolation:isolate"/>
  <rect x="413.05906" y="9.5" width="20" height="4" fill="#ccc" transform="matrix(1, 0, 0, 1, -81.980277, -18.923951)"/>
  <rect x="413.05906" y="40.5" width="20" height="4" fill="#ccc" transform="matrix(1, 0, 0, 1, -81.980277, -18.923951)"/>
  <path d="M731.55906,301.16024h-12a4.50507,4.50507,0,0,1-4.5-4.5v-49a4.50508,4.50508,0,0,1,4.5-4.5h12a4.50508,4.50508,0,0,1,4.5,4.5v49A4.50508,4.50508,0,0,1,731.55906,301.16024Z" transform="matrix(1, 0, 0, 1, -354.480277, -262.084184)" fill="#f2f2f2" style="isolation:isolate"/>
  <rect x="443.05906" y="9.5" width="20" height="4" fill="#ccc" transform="matrix(1, 0, 0, 1, -81.980277, -18.923951)"/>
  <rect x="443.05906" y="40.5" width="20" height="4" fill="#ccc" transform="matrix(1, 0, 0, 1, -81.980277, -18.923951)"/>
  <path d="M761.55906,301.16024h-12a4.50507,4.50507,0,0,1-4.5-4.5v-49a4.50508,4.50508,0,0,1,4.5-4.5h12a4.50508,4.50508,0,0,1,4.5,4.5v49A4.50508,4.50508,0,0,1,761.55906,301.16024Z" transform="matrix(1, 0, 0, 1, -354.480277, -262.084184)" fill="#f2f2f2" style="isolation:isolate"/>
  <rect x="473.05906" y="9.5" width="20" height="4" fill="#ccc" transform="matrix(1, 0, 0, 1, -81.980277, -18.923951)"/>
  <rect x="473.05906" y="40.5" width="20" height="4" fill="#ccc" transform="matrix(1, 0, 0, 1, -81.980277, -18.923951)"/>
  <path d="M777.55906,382.16024h-12a4.50507,4.50507,0,0,1-4.5-4.5v-49a4.50508,4.50508,0,0,1,4.5-4.5h12a4.50508,4.50508,0,0,1,4.5,4.5v49A4.50508,4.50508,0,0,1,777.55906,382.16024Z" transform="matrix(1, 0, 0, 1, -354.480277, -262.084184)" fill="#f2f2f2" style="isolation:isolate"/>
  <rect x="489.05906" y="90.5" width="20" height="4" fill="#ccc" transform="matrix(1, 0, 0, 1, -81.980277, -18.923951)"/>
  <rect x="489.05906" y="121.5" width="20" height="4" fill="#ccc" transform="matrix(1, 0, 0, 1, -81.980277, -18.923951)"/>
  <path d="M807.55906,382.16024h-12a4.50507,4.50507,0,0,1-4.5-4.5v-49a4.50508,4.50508,0,0,1,4.5-4.5h12a4.50508,4.50508,0,0,1,4.5,4.5v49A4.50508,4.50508,0,0,1,807.55906,382.16024Z" transform="matrix(1, 0, 0, 1, -354.480277, -262.084184)" fill="#f2f2f2" style="isolation:isolate"/>
  <rect x="519.05906" y="90.5" width="20" height="4" fill="#ccc" transform="matrix(1, 0, 0, 1, -81.980277, -18.923951)"/>
  <rect x="519.05906" y="121.5" width="20" height="4" fill="#ccc" transform="matrix(1, 0, 0, 1, -81.980277, -18.923951)"/>
  <path d="M837.55906,382.16024h-12a4.50507,4.50507,0,0,1-4.5-4.5v-49a4.50508,4.50508,0,0,1,4.5-4.5h12a4.50508,4.50508,0,0,1,4.5,4.5v49A4.50508,4.50508,0,0,1,837.55906,382.16024Z" transform="matrix(1, 0, 0, 1, -354.480277, -262.084184)" fill="#f2f2f2" style="isolation:isolate"/>
  <rect x="549.05906" y="90.5" width="20" height="4" fill="#ccc" transform="matrix(1, 0, 0, 1, -81.980277, -18.923951)"/>
  <rect x="549.05906" y="121.5" width="20" height="4" fill="#ccc" transform="matrix(1, 0, 0, 1, -81.980277, -18.923951)"/>
  <path d="M698.55906,463.16024h-12a4.50507,4.50507,0,0,1-4.5-4.5v-49a4.50508,4.50508,0,0,1,4.5-4.5h12a4.50508,4.50508,0,0,1,4.5,4.5v49A4.50508,4.50508,0,0,1,698.55906,463.16024Z" transform="matrix(1, 0, 0, 1, -354.480277, -262.084184)" fill="#f2f2f2" style="isolation:isolate"/>
  <rect x="410.05906" y="171.5" width="20" height="4" fill="#ccc" transform="matrix(1, 0, 0, 1, -81.980277, -18.923951)"/>
  <rect x="410.05906" y="202.5" width="20" height="4" fill="#ccc" transform="matrix(1, 0, 0, 1, -81.980277, -18.923951)"/>
  <path d="M728.55906,463.16024h-12a4.50507,4.50507,0,0,1-4.5-4.5v-49a4.50508,4.50508,0,0,1,4.5-4.5h12a4.50508,4.50508,0,0,1,4.5,4.5v49A4.50508,4.50508,0,0,1,728.55906,463.16024Z" transform="matrix(1, 0, 0, 1, -354.480277, -262.084184)" fill="#f2f2f2" style="isolation:isolate"/>
  <rect x="440.05906" y="171.5" width="20" height="4" fill="#ccc" transform="matrix(1, 0, 0, 1, -81.980277, -18.923951)"/>
  <rect x="440.05906" y="202.5" width="20" height="4" fill="#ccc" transform="matrix(1, 0, 0, 1, -81.980277, -18.923951)"/>
  <path d="M758.55906,463.16024h-12a4.50507,4.50507,0,0,1-4.5-4.5v-49a4.50508,4.50508,0,0,1,4.5-4.5h12a4.50508,4.50508,0,0,1,4.5,4.5v49A4.50508,4.50508,0,0,1,758.55906,463.16024Z" transform="matrix(1, 0, 0, 1, -354.480277, -262.084184)" fill="#f2f2f2" style="isolation:isolate"/>
  <rect x="470.05906" y="171.5" width="20" height="4" fill="#ccc" transform="matrix(1, 0, 0, 1, -81.980277, -18.923951)"/>
  <rect x="470.05906" y="202.5" width="20" height="4" fill="#ccc" transform="matrix(1, 0, 0, 1, -81.980277, -18.923951)"/>
  <path d="M791.55906,301.16024h-12a4.50507,4.50507,0,0,1-4.5-4.5v-49a4.50508,4.50508,0,0,1,4.5-4.5h12a4.50508,4.50508,0,0,1,4.5,4.5v49A4.50508,4.50508,0,0,1,791.55906,301.16024Z" transform="matrix(1, 0, 0, 1, -354.480277, -262.084184)" fill="#f2f2f2" style="isolation:isolate"/>
  <rect x="503.05906" y="9.5" width="20" height="4" fill="#ccc" transform="matrix(1, 0, 0, 1, -81.980277, -18.923951)"/>
  <rect x="503.05906" y="40.5" width="20" height="4" fill="#ccc" transform="matrix(1, 0, 0, 1, -81.980277, -18.923951)"/>
  <path d="M821.55906,301.16024h-12a4.50507,4.50507,0,0,1-4.5-4.5v-49a4.50508,4.50508,0,0,1,4.5-4.5h12a4.50508,4.50508,0,0,1,4.5,4.5v49A4.50508,4.50508,0,0,1,821.55906,301.16024Z" transform="matrix(1, 0, 0, 1, -354.480277, -262.084184)" fill="#f2f2f2" style="isolation:isolate"/>
  <rect x="533.05906" y="9.5" width="20" height="4" fill="#ccc" transform="matrix(1, 0, 0, 1, -81.980277, -18.923951)"/>
  <rect x="533.05906" y="40.5" width="20" height="4" fill="#ccc" transform="matrix(1, 0, 0, 1, -81.980277, -18.923951)"/>
  <path d="M851.55906,301.16024h-12a4.50507,4.50507,0,0,1-4.5-4.5v-49a4.50508,4.50508,0,0,1,4.5-4.5h12a4.50508,4.50508,0,0,1,4.5,4.5v49A4.50508,4.50508,0,0,1,851.55906,301.16024Z" transform="matrix(1, 0, 0, 1, -354.480277, -262.084184)" fill="#f2f2f2" style="isolation:isolate"/>
  <rect x="563.05906" y="9.5" width="20" height="4" fill="#ccc" transform="matrix(1, 0, 0, 1, -81.980277, -18.923951)"/>
  <rect x="563.05906" y="40.5" width="20" height="4" fill="#ccc" transform="matrix(1, 0, 0, 1, -81.980277, -18.923951)"/>
  <path d="M881.55906,301.16024h-12a4.50507,4.50507,0,0,1-4.5-4.5v-49a4.50508,4.50508,0,0,1,4.5-4.5h12a4.50508,4.50508,0,0,1,4.5,4.5v49A4.50508,4.50508,0,0,1,881.55906,301.16024Z" transform="matrix(1, 0, 0, 1, -354.480277, -262.084184)" fill="#f2f2f2" style="isolation:isolate"/>
  <rect x="593.05906" y="9.5" width="20" height="4" fill="#ccc" transform="matrix(1, 0, 0, 1, -81.980277, -18.923951)"/>
  <rect x="593.05906" y="40.5" width="20" height="4" fill="#ccc" transform="matrix(1, 0, 0, 1, -81.980277, -18.923951)"/>
  <path d="M926.5,302.66024h-285a1,1,0,0,1,0-2h285a1,1,0,0,1,0,2Z" transform="matrix(1, 0, 0, 1, -354.480277, -262.084184)" fill="#ccc"/>
  <path d="M926.5,383.66024h-285a1,1,0,0,1,0-2h285a1,1,0,0,1,0,2Z" transform="matrix(1, 0, 0, 1, -354.480277, -262.084184)" fill="#ccc"/>
  <path d="M926.5,464.66024h-285a1,1,0,0,1,0-2h285a1,1,0,0,1,0,2Z" transform="matrix(1, 0, 0, 1, -354.480277, -262.084184)" fill="#ccc"/>
  <path d="M854.063,453.583a122.04116,122.04116,0,0,1,10.10051-38.51722q2.27961-5.09249,5.01812-9.96076a.7438.7438,0,0,0-1.28354-.75026,123.7286,123.7286,0,0,0-13.7678,37.98231q-1.03367,5.58355-1.55378,11.24593c-.08811.95214,1.39893.94613,1.48649,0Z" transform="matrix(1, 0, 0, 1, -354.480277, -262.084184)" fill="#e6e6e6"/>
  <circle cx="600.2819" cy="154.9144" r="9.4144" fill="#e6e6e6" transform="matrix(1, 0, 0, 1, -81.980277, -18.923951)"/>
  <path d="M855.026,453.83307a79.17357,79.17357,0,0,1,6.55267-24.98791q1.47888-3.30374,3.25549-6.462a.48254.48254,0,0,0-.83269-.48673,80.26825,80.26825,0,0,0-8.93182,24.6409q-.67059,3.6223-1.008,7.29575c-.05716.6177.90755.6138.96436,0Z" transform="matrix(1, 0, 0, 1, -354.480277, -262.084184)" fill="#e6e6e6"/>
  <circle cx="594.66984" cy="174.66195" r="6.10756" fill="#e6e6e6" transform="matrix(1, 0, 0, 1, -81.980277, -18.923951)"/>
  <path d="M853.80883,453.25653a79.17368,79.17368,0,0,1-10.2024-23.73277q-.86592-3.51453-1.40764-7.09749a.48253.48253,0,0,0-.95592.12838,80.26823,80.26823,0,0,0,8.11306,24.92247q1.69918,3.26856,3.69253,6.37254c.33485.5222,1.09311-.07422.76037-.59313Z" transform="matrix(1, 0, 0, 1, -354.480277, -262.084184)" fill="#e6e6e6"/>
  <circle cx="568.73518" cy="174.23322" r="6.10756" fill="#e6e6e6" transform="matrix(1, 0, 0, 1, -81.980277, -18.923951)"/>
  <path d="M835.05906,458.66024v-12a4.50508,4.50508,0,0,1,4.5-4.5h28a4.50508,4.50508,0,0,1,4.5,4.5v12a4.50508,4.50508,0,0,1-4.5,4.5h-28A4.50508,4.50508,0,0,1,835.05906,458.66024Z" transform="matrix(1, 0, 0, 1, -354.480277, -262.084184)" fill="#f2f2f2" style="isolation:isolate"/>
  <path d="M654.5,606.66024h-381a1,1,0,0,1,0-2h381a1,1,0,0,1,0,2Z" transform="matrix(1, 0, 0, 1, -354.480277, -262.084184)" fill="#3f3d56"/>
  <polygon points="173.405 378.826 172.69 366.588 219.556 358.003 220.612 376.067 173.405 378.826" fill="#ffb8b8" transform="matrix(1, 0, 0, 1, -81.980277, -18.923951)"/>
  <path d="M436.62166,598.16324h23.64387a0,0,0,0,1,0,0v14.88687a0,0,0,0,1,0,0H421.7348a0,0,0,0,1,0,0v0A14.88686,14.88686,0,0,1,436.62166,598.16324Z" transform="matrix(0.058355, 0.998296, -0.998296, 0.058355, 665.360116, -132.066171)" fill="#2f2e41"/>
  <polygon points="193.789 378.714 186.004 388.185 145.768 362.666 157.257 348.688 193.789 378.714" fill="#ffb8b8" transform="matrix(1, 0, 0, 1, -81.980277, -18.923951)"/>
  <path d="M454.38952,629.78677h23.64386a0,0,0,0,1,0,0v14.88687a0,0,0,0,1,0,0H439.50266a0,0,0,0,1,0,0v0A14.88686,14.88686,0,0,1,454.38952,629.78677Z" transform="matrix(0.634972, -0.772535, 0.772535, 0.634972, -679.299857, 324.937407)" fill="#2f2e41"/>
  <path d="M443.88663,577.83023l-5.31975,25.07884a4,4,0,0,0,3.84843,4.8295l52.29785.84351a4,4,0,0,0,4.00364-4.69462l-4.57453-25.92236a4,4,0,0,0-3.93914-3.30486H447.79957A4,4,0,0,0,443.88663,577.83023Z" transform="matrix(1, 0, 0, 1, -354.480277, -262.084184)" fill="#2f2e41"/>
  <path d="M452.55906,586.66024s-51-32-61-15c-5,8.5-2.5,16.75,1.25,22.875a34.63053,34.63053,0,0,0,14.4025,12.89112l41.3475,20.23388,15-16-10-9Z" transform="matrix(1, 0, 0, 1, -354.480277, -262.084184)" fill="#2f2e41"/>
  <path d="M478.55906,581.66024s66-19,53,17-62,22-62,22l-5-15,17-12Z" transform="matrix(1, 0, 0, 1, -354.480277, -262.084184)" fill="#2f2e41"/>
  <path d="M473.18454,585.629a131.99386,131.99386,0,0,1-30.25708-3.98633l-.29248-.08007-13.70556-63.04493a23.2247,23.2247,0,0,1,14.93286-26.94335,80.45969,80.45969,0,0,1,51.29956-1.02442h.00024a23.46956,23.46956,0,0,1,15.635,27.76465l-15.30835,63.19531-.21557.10254C488.91135,584.62606,480.956,585.629,473.18454,585.629Z" transform="matrix(1, 0, 0, 1, -354.480277, -262.084184)" fill="#ccc"/>
  <path d="M454.77438,590.52651a10.05573,10.05573,0,0,1,14.47536-5.31221l26.98651-23.42452,2.44163,18.40848-26.00117,19.4221a10.11027,10.11027,0,0,1-17.90233-9.09385Z" transform="matrix(1, 0, 0, 1, -354.480277, -262.084184)" fill="#ffb8b8"/>
  <path d="M480.51218,595.63583a4.53353,4.53353,0,0,1-1.29639-.19043,4.45263,4.45263,0,0,1-2.9624-2.81641l-3.25732-9.22851a4.472,4.472,0,0,1,1.30224-4.90235l36.7688-22.07422L496.573,491.76278l.36865-.08887c.14991-.0371,15.00025-3.417,21.0857,12.81055,4.26147,11.36524,20.03149,36.07715,18.91894,52.77637a14.88461,14.88461,0,0,1-12.322,13.72754l-41.38818,23.71289A4.456,4.456,0,0,1,480.51218,595.63583Z" transform="matrix(1, 0, 0, 1, -354.480277, -262.084184)" fill="#ccc"/>
  <path d="M484.63609,588.33293a10.05575,10.05575,0,0,0-14.47536-5.31221l-26.9865-23.42452-2.44163,18.40848,26.00117,19.4221a10.11027,10.11027,0,0,0,17.90232-9.09385Z" transform="matrix(1, 0, 0, 1, -354.480277, -262.084184)" fill="#ffb8b8"/>
  <path d="M461.60593,595.63583a4.456,4.456,0,0,1-2.72388-.93457l-44.38818-21.71289a14.88461,14.88461,0,0,1-12.322-13.72754c-1.11255-16.69922,17.65747-43.41113,21.91894-54.77637,6.085-16.22754,20.93555-12.84863,21.0857-12.81055l.36865.08887L428.051,558.42391l39.7688,20.07422a4.472,4.472,0,0,1,1.30224,4.90235l-3.25732,9.22851a4.45263,4.45263,0,0,1-2.9624,2.81641A4.5348,4.5348,0,0,1,461.60593,595.63583Z" transform="matrix(1, 0, 0, 1, -354.480277, -262.084184)" fill="#ccc"/>
  <path d="M514.55908,605.66016h-89a7.00818,7.00818,0,0,1-7-7v-49a7.00818,7.00818,0,0,1,7-7h89a7.00817,7.00817,0,0,1,7,7v49A7.00818,7.00818,0,0,1,514.55908,605.66016Z" transform="matrix(1, 0, 0, 1, -354.480277, -262.084184)" fill="#06b6d4"/>
  <circle cx="197.55906" cy="331" r="6" fill="#fff" transform="matrix(1, 0, 0, 1, -81.980277, -18.923951)"/>
  <path d="M305.16247,594.9787A122.0417,122.0417,0,0,1,315.263,556.46148q2.27961-5.09249,5.01813-9.96076a.7438.7438,0,0,0-1.28354-.75026,123.72825,123.72825,0,0,0-13.7678,37.98231q-1.03366,5.58356-1.55378,11.24593c-.08811.95214,1.39893.94613,1.48648,0Z" transform="matrix(1, 0, 0, 1, -354.480277, -262.084184)" fill="#e6e6e6"/>
  <circle cx="51.38142" cy="296.31007" r="9.4144" fill="#06b6d4" transform="matrix(1, 0, 0, 1, -81.980277, -18.923951)"/>
  <path d="M306.1255,595.22874a79.1741,79.1741,0,0,1,6.55267-24.98791q1.47889-3.30373,3.25549-6.462a.48254.48254,0,0,0-.83269-.48673,80.26852,80.26852,0,0,0-8.93181,24.64089q-.67059,3.62232-1.008,7.29576c-.05716.6177.90755.6138.96435,0Z" transform="matrix(1, 0, 0, 1, -354.480277, -262.084184)" fill="#e6e6e6"/>
  <circle cx="45.76935" cy="316.05762" r="6.10756" fill="#06b6d4" transform="matrix(1, 0, 0, 1, -81.980277, -18.923951)"/>
  <path d="M304.90835,594.6522a79.174,79.174,0,0,1-10.20241-23.73277q-.86592-3.51453-1.40763-7.09749a.48253.48253,0,0,0-.95592.12838,80.26809,80.26809,0,0,0,8.11306,24.92246q1.69919,3.26857,3.69252,6.37255c.33485.5222,1.09311-.07422.76038-.59313Z" transform="matrix(1, 0, 0, 1, -354.480277, -262.084184)" fill="#e6e6e6"/>
  <circle cx="19.8347" cy="315.62888" r="6.10756" fill="#06b6d4" transform="matrix(1, 0, 0, 1, -81.980277, -18.923951)"/>
  <path d="M286.15857,600.05591v-12a4.50508,4.50508,0,0,1,4.5-4.5h28a4.50508,4.50508,0,0,1,4.5,4.5v12a4.50508,4.50508,0,0,1-4.5,4.5h-28A4.50508,4.50508,0,0,1,286.15857,600.05591Z" transform="matrix(1, 0, 0, 1, -354.480277, -262.084184)" fill="#f2f2f2" style="isolation:isolate"/>
  <title>working remotely</title>
  <path d="M 245.983 312.179 L 245.633 314.408 L 239.947 350.44 C 225.124 358.121 213.594 350.74 213.493 350.44 L 206.329 314.239 L 205.922 312.179 L 245.983 312.179 Z" fill="#3f3d56" style=""/>
  <path d="M 245.983 312.179 L 245.633 314.408 C 228.933 321.624 211.118 316.008 206.329 314.239 L 205.922 312.179 L 245.983 312.179 Z" opacity="0.1" style=""/>
  <path d="M 205.087 310.222 L 205.087 313.472 C 205.087 313.472 227.174 323.015 247.076 313.472 L 247.076 310.222 L 205.087 310.222 Z" fill="#06b6d4" style=""/>
  <path d="M 207.654 305.928 C 207.654 305.928 207.011 308.123 205.087 308.314 L 205.087 311.08 L 247.076 311.08 L 247.076 308.601 C 247.076 308.601 244.509 308.123 244.889 305.928 L 207.654 305.928 Z" fill="#06b6d4" style=""/>
  <ellipse cx="225.954" cy="306.165" rx="18.939" ry="4.056" fill="#06b6d4" style=""/>
  <ellipse cx="225.954" cy="306.165" rx="18.939" ry="4.056" opacity="0.1" style=""/>
  <path d="M 242.58 305.928 C 242.58 307.554 235.398 308.886 226.531 308.886 L 226.06 308.886 C 220.107 308.853 214.963 308.237 212.339 307.313 C 211.153 306.897 210.48 306.426 210.48 305.928 C 210.48 305.103 212.317 304.356 215.291 303.819 C 218.987 303.219 222.763 302.934 226.545 302.971 C 235.398 302.971 242.58 304.294 242.58 305.928 Z" opacity="0.1" style=""/>
  <path d="M 226.06 308.886 C 220.107 308.853 214.963 308.237 212.339 307.313 L 215.278 303.806 L 226.06 308.886 Z" opacity="0.1" style=""/>
  <path d="M 209.285 306.157 C 209.058 306.12 208.756 306.179 208.713 306.348 C 208.707 306.434 208.737 306.519 208.8 306.592 C 209.301 307.181 210.03 307.644 210.891 307.921 C 211.038 307.982 211.2 308.021 211.368 308.035 C 211.546 308.051 211.72 307.984 211.805 307.866 C 211.853 307.766 211.843 307.656 211.774 307.564 C 211.64 307.388 211.455 307.236 211.232 307.121 C 210.645 306.78 210.047 306.251 209.285 306.157 Z" opacity="0.1" style=""/>
  <circle cx="561.349" cy="1004.986" r="25.83" fill="#06b6d4" style="" transform="matrix(0.437391, 0, 0, 0.325021, -18.935003, 5.859819)"/>
</svg>