<?xml version="1.0" encoding="utf-8"?>
<svg data-name="Layer 1" width="979.32677" height="424.8366" viewBox="0 -19.578 980.632 444.414" xmlns="http://www.w3.org/2000/svg">
  <path d="M993.71816,412.83936H419.142a9.19888,9.19888,0,0,0,0,18.39776H435.417V651.3026a9.19888,9.19888,0,0,0,18.39776,0l.1398-220.06548h461.1557l42.52,220.06548a9.19887,9.19887,0,1,0,18.39775,0l2.67633-220.06548h15.01383a9.19888,9.19888,0,0,0,0-18.39776Z" transform="translate(-110.33661 -237.5817)" fill="#ccc"/>
  <path d="M518.73716,371.85047v38.9547H421.141a19.48915,19.48915,0,1,1-1.35523-38.95474q.67739-.02358,1.35523,0Z" transform="translate(-110.33661 -237.5817)" fill="#f2f2f2"/>
  <path d="M521.13449,410.50552a1.49881,1.49881,0,0,1-1.49822,1.49822H419.40273a20.52615,20.52615,0,0,1,0-41.05229H519.63627a1.49827,1.49827,0,1,1,0,2.99653H419.40273a17.52964,17.52964,0,0,0,0,35.05924H519.63627A1.49883,1.49883,0,0,1,521.13449,410.50552Z" transform="translate(-110.33661 -237.5817)" fill="#06b6d4"/>
  <path d="M518.73716,380.84H413.85905a.29966.29966,0,0,1-.00552-.59929H518.73716a.29966.29966,0,0,1,0,.59929Z" transform="translate(-110.33661 -237.5817)" fill="#ccc"/>
  <path d="M518.73716,388.03169H413.85905a.29966.29966,0,0,1-.00552-.59929H518.73716a.29966.29966,0,0,1,0,.59929Z" transform="translate(-110.33661 -237.5817)" fill="#ccc"/>
  <path d="M518.73716,395.22332H413.85905a.29966.29966,0,0,1-.00552-.59929H518.73716a.29966.29966,0,0,1,0,.59929Z" transform="translate(-110.33661 -237.5817)" fill="#ccc"/>
  <path d="M518.73716,402.41487H413.85905a.29966.29966,0,0,1-.00552-.59929H518.73716a.29966.29966,0,0,1,0,.59929Z" transform="translate(-110.33661 -237.5817)" fill="#ccc"/>
  <path d="M500.33941,330.80932v38.95474H402.74324a19.48915,19.48915,0,0,1-1.35522-38.95474q.67737-.02358,1.35522,0Z" transform="translate(-110.33661 -237.5817)" fill="#f2f2f2"/>
  <path d="M502.73673,369.46442a1.49885,1.49885,0,0,1-1.49822,1.49826H401.005a20.52614,20.52614,0,0,1,0-41.05229H501.23851a1.49826,1.49826,0,1,1,0,2.99652H401.005a17.52964,17.52964,0,0,0,0,35.05928H501.23851A1.49884,1.49884,0,0,1,502.73673,369.46442Z" transform="translate(-110.33661 -237.5817)" fill="#3f3d56"/>
  <path d="M500.33941,339.79886H395.4613a.29966.29966,0,0,1-.00553-.59929H500.33941a.29966.29966,0,0,1,0,.59929Z" transform="translate(-110.33661 -237.5817)" fill="#ccc"/>
  <path d="M500.33941,346.99054H395.4613a.29966.29966,0,0,1-.00553-.59929H500.33941a.29966.29966,0,0,1,0,.59929Z" transform="translate(-110.33661 -237.5817)" fill="#ccc"/>
  <path d="M500.33941,354.18217H395.4613a.29966.29966,0,0,1-.00553-.59929H500.33941a.29966.29966,0,0,1,0,.59929Z" transform="translate(-110.33661 -237.5817)" fill="#ccc"/>
  <path d="M500.33941,361.37376H395.4613a.29966.29966,0,0,1-.00553-.59929H500.33941a.29966.29966,0,0,1,0,.59929Z" transform="translate(-110.33661 -237.5817)" fill="#ccc"/>
  <path d="M613.87355,550.68347V516.71838a5.661,5.661,0,0,0-5.66085-5.66085H479.4284a5.661,5.661,0,0,0-5.66084,5.66085v33.96509Z" transform="translate(-110.33661 -237.5817)" fill="#ccc"/>
  <rect x="363.43092" y="325.83868" width="140.10602" height="43.87158" fill="#ccc"/>
  <path d="M473.76756,620.02887V653.994a5.661,5.661,0,0,0,5.66084,5.66084H608.2127a5.661,5.661,0,0,0,5.66085-5.66084V620.02887Z" transform="translate(-110.33661 -237.5817)" fill="#ccc"/>
  <circle cx="432.77633" cy="294.70402" r="4.24564" fill="#fff"/>
  <circle cx="432.77633" cy="351.3125" r="4.24564" fill="#fff"/>
  <circle cx="433.00385" cy="406.72228" r="4.24564" fill="#fff"/>
  <path d="M597.989,472.33053v38.9547H500.39287a19.48916,19.48916,0,0,1-1.35647-38.9547q.678-.02358,1.35647,0Z" transform="translate(-110.33661 -237.5817)" fill="#f2f2f2"/>
  <path d="M600.38637,510.98558a1.49881,1.49881,0,0,1-1.49822,1.49822H498.65461a20.52615,20.52615,0,0,1-.0247-41.05229H598.88815a1.49827,1.49827,0,1,1,0,2.99653H498.65461a17.52963,17.52963,0,0,0,0,35.05923H598.88815A1.49885,1.49885,0,0,1,600.38637,510.98558Z" transform="translate(-110.33661 -237.5817)" fill="#3f3d56"/>
  <path d="M597.989,481.32H493.111a.29966.29966,0,0,1-.00553-.59929H597.98913a.29966.29966,0,0,1,0,.59929Z" transform="translate(-110.33661 -237.5817)" fill="#ccc"/>
  <path d="M597.989,488.51175H493.111a.29966.29966,0,0,1-.00553-.59929H597.98913a.29966.29966,0,0,1,0,.59929Z" transform="translate(-110.33661 -237.5817)" fill="#ccc"/>
  <path d="M597.989,495.70338H493.111a.29966.29966,0,0,1-.00553-.59929H597.98913a.29966.29966,0,0,1,0,.59929Z" transform="translate(-110.33661 -237.5817)" fill="#ccc"/>
  <path d="M597.989,502.89493H493.111a.29966.29966,0,0,1-.00553-.59929H597.98913a.29966.29966,0,0,1,0,.59929Z" transform="translate(-110.33661 -237.5817)" fill="#ccc"/>
  <path d="M483.36747,317.81415H438.90162a2.74745,2.74745,0,0,0-1.21689.28306l-11.22288,5.61835a2.0452,2.0452,0,0,0,0,3.76443l11.22288,5.61835a2.74718,2.74718,0,0,0,1.21689.28306h44.46585a2.33381,2.33381,0,0,0,2.4628-2.16532v-11.2367A2.3338,2.3338,0,0,0,483.36747,317.81415Z" transform="translate(-110.33661 -237.5817)" fill="#3f3d56"/>
  <path d="M485.83027,319.97947v11.2367a2.33383,2.33383,0,0,1-2.4628,2.16532h-8.8589V317.81415h8.8589A2.33383,2.33383,0,0,1,485.83027,319.97947Z" transform="translate(-110.33661 -237.5817)" fill="#06b6d4"/>
  <path d="M216.78083,537.99332a35.33951,35.33951,0,0,0,34.12552-6.01134c11.95262-10.03214,15.70013-26.56,18.74934-41.864q4.50949-22.63308,9.019-45.26617l-18.88217,13.00153c-13.57891,9.34993-27.46375,18.99939-36.86572,32.54233S209.42082,522.42587,216.975,537.08" transform="translate(-110.33661 -237.5817)" fill="#e6e6e6"/>
  <path d="M218.39489,592.79741c-1.91113-13.92071-3.87625-28.0202-2.53572-42.09016,1.19057-12.4956,5.00277-24.70032,12.764-34.70734a57.73582,57.73582,0,0,1,14.81307-13.42309c1.48131-.935,2.84468,1.41257,1.36983,2.34348a54.88844,54.88844,0,0,0-21.71125,26.19626c-4.72684,12.02273-5.48591,25.12848-4.67135,37.90006.4926,7.72345,1.53656,15.39627,2.58859,23.05926a1.40615,1.40615,0,0,1-.94781,1.66928,1.3653,1.3653,0,0,1-1.6693-.94781Z" transform="translate(-110.33661 -237.5817)" fill="#f2f2f2"/>
  <path d="M236.80246,568.16434a26.01425,26.01425,0,0,0,22.6665,11.69871c11.47417-.54466,21.04-8.55293,29.651-16.15584l25.46969-22.48783-16.85671-.80672c-12.12234-.58011-24.55745-1.12124-36.10356,2.617s-22.19457,12.73508-24.30583,24.68624" transform="translate(-110.33661 -237.5817)" fill="#e6e6e6"/>
  <path d="M212.99392,600.79976c9.19853-16.27621,19.86805-34.36538,38.93262-40.14695A43.445,43.445,0,0,1,268.3022,558.962c1.73863.14991,1.30448,2.82994-.431,2.6803a40.36111,40.36111,0,0,0-26.133,6.91386c-7.36852,5.01554-13.10573,11.98848-17.96161,19.383-2.97439,4.52936-5.63867,9.25082-8.30346,13.966-.85161,1.50687-3.34078.41915-2.47922-1.10534Z" transform="translate(-110.33661 -237.5817)" fill="#f2f2f2"/>
  <path d="M198.25523,617.93168a19.69836,19.69836,0,0,1,12.0709-16.49847v-9.40956h15.782v9.70608a19.68812,19.68812,0,0,1,11.41362,16.202l3.711,43.13835H194.54417Z" transform="translate(-110.33661 -237.5817)" fill="#f2f2f2"/>
  <path d="M734.973,411.955l-4.69488-1.97685-3.22067-23.53551h-42.889l-3.491,23.43936-4.20031,2.10013a.99744.99744,0,0,0,.44611,1.88955h57.66283A.99739.99739,0,0,0,734.973,411.955Z" transform="translate(-110.33661 -237.5817)" fill="#e6e6e6"/>
  <path d="M811.1898,389.574H600.50692a4.174,4.174,0,0,1-4.16467-4.174V355.69092H815.35446V385.4A4.17408,4.17408,0,0,1,811.1898,389.574Z" transform="translate(-110.33661 -237.5817)" fill="#ccc"/>
  <path d="M815.57469,369.73213H596.15V242.61337a5.0375,5.0375,0,0,1,5.03186-5.03167h209.361a5.03755,5.03755,0,0,1,5.03191,5.03167Z" transform="translate(-110.33661 -237.5817)" fill="#3f3d56"/>
  <path d="M802.46932,360.50584h-193.214a3.88344,3.88344,0,0,1-3.87919-3.87908V250.68707a3.88365,3.88365,0,0,1,3.87919-3.87932h193.214a3.88366,3.88366,0,0,1,3.8792,3.87932V356.62676A3.88345,3.88345,0,0,1,802.46932,360.50584Z" transform="translate(-110.33661 -237.5817)" fill="#fff"/>
  <path d="M 643.201 159 C 648.513 154.093 656.969 155.181 660.867 161.272 L 687.001 156.626 L 693.698 171.819 L 656.699 177.862 C 648.823 182.196 639.208 176.378 639.393 167.39 C 639.459 164.189 640.835 161.157 643.201 159 Z" fill="#ffb6b6"/>
  <path d="M 670.66 175.788 L 697.906 175.449 L 701.354 175.402 L 756.787 174.704 C 756.787 174.704 771.84 160.343 784.948 145.557 L 783.11 132.269 C 781.318 119.228 774.849 107.282 764.907 98.654 C 746.134 111.198 735.247 136.028 735.247 136.028 L 700.877 144.249 L 697.438 145.071 L 676.082 150.174 L 670.66 175.788 Z" fill="#06b6d4"/>
  <path d="M915.25011,498.96167H864.39249c0,2.17915-55.59414,3.94772-55.59414,3.94772a20.30858,20.30858,0,0,0-3.33166,3.15818,19.59694,19.59694,0,0,0-4.58,12.63271v3.15818a19.74588,19.74588,0,0,0,19.73861,19.73861h94.62478a19.75579,19.75579,0,0,0,19.73862-19.73861v-3.15818A19.76607,19.76607,0,0,0,915.25011,498.96167Z" transform="translate(-110.33661 -237.5817)" fill="#e4e4e4"/>
  <rect x="747.4019" y="303.23122" width="20.52816" height="118.48951" fill="#e4e4e4"/>
  <path d="M799.31222,658.58132c0,2.218,31.10721.858,69.47992.858s69.47991,1.36012,69.47991-.858-31.1072-19.807-69.47991-19.807S799.31222,656.36323,799.31222,658.58132Z" transform="translate(-110.33661 -237.5817)" fill="#e4e4e4"/>
  <polygon points="675.186 407.461 659.908 407.46 652.64 348.531 675.188 348.532 675.186 407.461" fill="#ffb6b6"/>
  <path d="M789.41863,659.852l-49.2623-.00183v-.62309a19.17528,19.17528,0,0,1,19.17426-19.17395h.00122l30.08773.00122Z" transform="translate(-110.33661 -237.5817)" fill="#2f2e41"/>
  <polygon points="630.031 407.461 614.753 407.46 607.485 348.531 630.033 348.532 630.031 407.461" fill="#ffb6b6"/>
  <path d="M744.2636,659.852l-49.2623-.00183v-.62309a19.1753,19.1753,0,0,1,19.17426-19.17395h.00122l30.08773.00122Z" transform="translate(-110.33661 -237.5817)" fill="#2f2e41"/>
  <path d="M920.21655,461.22417s8.91308,47.1307-24.99958,53.13247-82.86639,10.21993-82.86639,10.21993L790.36706,627.14324l-29.53443-2.63675s3.928-123.46737,13.5876-133.127,70.71212-38.58282,70.71212-38.58282Z" transform="translate(-110.33661 -237.5817)" fill="#2f2e41"/>
  <path d="M853.98286,441.47135,839.151,456.35062s-107.0941,17.25-111.22553,41.9852c-6.23747,37.34427-13.60493,118.552-13.60493,118.552l32.1988-2.41491,12.62647-92.31123,51.5182-11.71874L869.27729,478.5Z" transform="translate(-110.33661 -237.5817)" fill="#2f2e41"/>
  <path d="M995.69426,290.88349A11.61582,11.61582,0,0,0,985.181,305.26136l-21.3614,15.75722,6.40951,15.31674,29.8539-22.67594a11.67883,11.67883,0,0,0-4.38876-22.77589Z" transform="translate(-110.33661 -237.5817)" fill="#ffb6b6"/>
  <path d="M992.25627,323.052l-53.551,59.4744s-25.60913-8.19816-45.41466-17.08624l-8.8977-27.32787a54.34329,54.34329,0,0,1-2.60112-19.66442c27.45606-7.306,59.391,19.87863,59.391,19.87863l40.08517-31.39877Z" transform="translate(-110.33661 -237.5817)" fill="#06b6d4"/>
  <path d="M1088.24817,662.4183H111.75183a1.41521,1.41521,0,1,1,0-2.83042h976.49634a1.41521,1.41521,0,1,1,0,2.83042Z" transform="translate(-110.33661 -237.5817)" fill="#ccc"/>
  <circle cx="118.064" cy="180.547" r="38.832" fill="#2f2e41" style="" transform="matrix(0.873614, 0, 0, 0.922809, 659.544434, -127.043533)"/>
  <circle cx="809.749" cy="252.599" r="27.907" transform="matrix(0.873263, -0.026137, 0.024743, 0.922439, 49.341057, -162.059753)" fill="#ffb6b6" style=""/>
  <path d="M 764.963 6.965 L 755.08 7.26 C 742.112 7.66 731.898 19.074 732.25 32.773 L 732.257 33.004 L 732.437 33.123 C 737.809 36.878 744.149 38.783 750.587 38.579 L 751.143 38.562 L 756.604 38.3 C 757.522 35.802 757.829 33.099 757.497 30.442 C 758.321 32.96 758.965 35.542 759.422 38.162 L 783.924 36.984 C 786.889 36.829 789.196 34.205 789.123 31.071 C 788.741 17.372 777.931 6.588 764.963 6.965 Z" fill="#2f2e41" style=""/>
  <path d="M 745.269 6.881 C 743.038 9.787 739.457 10.998 736.238 12.571 C 724.711 18.33 716.618 29.729 714.612 43.031 C 713.854 48.367 714.118 53.858 712.835 59.076 C 711.559 64.294 708.193 69.476 703.192 70.524 C 699.808 71.24 696.361 69.955 693.125 68.682 C 691.346 67.987 689.566 67.29 687.787 66.59 C 689.491 61.671 691.194 56.751 692.892 51.833 C 690.076 56.512 686.769 60.84 683.036 64.738 C 676.659 62.241 670.276 59.745 663.887 57.249 C 679.429 56.846 676.35 40.991 679.398 24.898 C 681.073 16.056 697.186 9.62 700.152 1.165 C 706.608 -17.309 729.575 -21.472 741.493 -6.33 C 742.437 -5.129 743.276 -3.84 743.998 -2.478 C 747.225 -1.231 747.458 4.012 745.269 6.881 Z" fill="#2f2e41" style=""/>
  <circle cx="99.905" cy="142.216" r="14.46" fill="#2f2e41" style="" transform="matrix(0.873614, 0, 0, 0.922809, 659.544434, -127.043533)"/>
  <path d="M 790.235 80.325 L 754.965 81.205 L 730.431 93.427 L 733.498 163.702 L 727.551 217.518 C 727.551 217.518 725.328 225.952 740.664 233.591 C 745.57 236.035 751.891 237.071 758.218 237.351 C 771.175 237.769 783.886 233.764 794.246 226 C 797.461 223.653 801.025 222.083 804.036 223.283 C 811.704 226.339 813.237 217.173 813.237 217.173 L 804.036 172.868 L 817.837 130.74 L 803.898 85.514 L 790.235 80.325 Z" fill="#06b6d4" style=""/>
  <path d="M 746.003 90.663 L 742.352 89.515 C 742.352 89.515 733.796 90.663 731.083 94.144 C 728.371 97.626 721.589 133.312 721.589 133.312 L 716.164 156.812 C 716.164 156.812 712.095 156.812 712.095 159.423 C 712.095 162.035 706.669 168.998 710.738 168.998 C 714.807 168.998 731.083 168.998 733.796 167.257 C 736.508 165.516 741.934 158.553 740.578 157.683 C 739.221 156.812 736.509 156.812 736.509 156.812 L 740.325 133.252 L 746.003 90.663 Z" fill="#06b6d4" style=""/>
</svg>