<?xml version="1.0" encoding="utf-8"?>
<svg viewBox="-87.122 -23.246 665.626 421.559" xmlns="http://www.w3.org/2000/svg">
  <path d="M689.063,372.583a122.04116,122.04116,0,0,1,10.10051-38.51722q2.27961-5.09249,5.01812-9.96076a.7438.7438,0,0,0-1.28354-.75026,123.7286,123.7286,0,0,0-13.7678,37.98231q-1.03367,5.58355-1.55378,11.24593c-.08811.95214,1.39893.94613,1.48649,0Z" transform="matrix(1, 0, 0, 1, -354.480277, -262.084184)" fill="#e6e6e6"/>
  <circle cx="435.2819" cy="73.9144" r="9.4144" fill="#e6e6e6" transform="matrix(1, 0, 0, 1, -81.980277, -18.923951)"/>
  <path d="M690.026,372.83307a79.17357,79.17357,0,0,1,6.55267-24.98791q1.47888-3.30374,3.25549-6.462a.48254.48254,0,0,0-.83269-.48673,80.26825,80.26825,0,0,0-8.93182,24.6409q-.67059,3.6223-1.008,7.29575c-.05716.6177.90755.6138.96436,0Z" transform="matrix(1, 0, 0, 1, -354.480277, -262.084184)" fill="#e6e6e6"/>
  <circle cx="429.66984" cy="93.66195" r="6.10756" fill="#e6e6e6" transform="matrix(1, 0, 0, 1, -81.980277, -18.923951)"/>
  <path d="M688.80883,372.25653a79.17368,79.17368,0,0,1-10.2024-23.73277q-.86592-3.51453-1.40764-7.09749a.48253.48253,0,0,0-.95592.12838,80.26823,80.26823,0,0,0,8.11306,24.92247q1.69918,3.26856,3.69253,6.37254c.33485.5222,1.09311-.07422.76037-.59313Z" transform="matrix(1, 0, 0, 1, -354.480277, -262.084184)" fill="#e6e6e6"/>
  <circle cx="403.73518" cy="93.23322" r="6.10756" fill="#e6e6e6" transform="matrix(1, 0, 0, 1, -81.980277, -18.923951)"/>
  <path d="M670.05906,377.66024v-12a4.50508,4.50508,0,0,1,4.5-4.5h28a4.50508,4.50508,0,0,1,4.5,4.5v12a4.50508,4.50508,0,0,1-4.5,4.5h-28A4.50508,4.50508,0,0,1,670.05906,377.66024Z" transform="matrix(1, 0, 0, 1, -354.480277, -262.084184)" fill="#f2f2f2" style="isolation:isolate"/>
  <path d="M701.55906,301.16024h-12a4.50507,4.50507,0,0,1-4.5-4.5v-49a4.50508,4.50508,0,0,1,4.5-4.5h12a4.50508,4.50508,0,0,1,4.5,4.5v49A4.50508,4.50508,0,0,1,701.55906,301.16024Z" transform="matrix(1, 0, 0, 1, -354.480277, -262.084184)" fill="#f2f2f2" style="isolation:isolate"/>
  <rect x="413.05906" y="9.5" width="20" height="4" fill="#ccc" transform="matrix(1, 0, 0, 1, -81.980277, -18.923951)"/>
  <rect x="413.05906" y="40.5" width="20" height="4" fill="#ccc" transform="matrix(1, 0, 0, 1, -81.980277, -18.923951)"/>
  <path d="M731.55906,301.16024h-12a4.50507,4.50507,0,0,1-4.5-4.5v-49a4.50508,4.50508,0,0,1,4.5-4.5h12a4.50508,4.50508,0,0,1,4.5,4.5v49A4.50508,4.50508,0,0,1,731.55906,301.16024Z" transform="matrix(1, 0, 0, 1, -354.480277, -262.084184)" fill="#f2f2f2" style="isolation:isolate"/>
  <rect x="443.05906" y="9.5" width="20" height="4" fill="#ccc" transform="matrix(1, 0, 0, 1, -81.980277, -18.923951)"/>
  <rect x="443.05906" y="40.5" width="20" height="4" fill="#ccc" transform="matrix(1, 0, 0, 1, -81.980277, -18.923951)"/>
  <path d="M761.55906,301.16024h-12a4.50507,4.50507,0,0,1-4.5-4.5v-49a4.50508,4.50508,0,0,1,4.5-4.5h12a4.50508,4.50508,0,0,1,4.5,4.5v49A4.50508,4.50508,0,0,1,761.55906,301.16024Z" transform="matrix(1, 0, 0, 1, -354.480277, -262.084184)" fill="#f2f2f2" style="isolation:isolate"/>
  <rect x="473.05906" y="9.5" width="20" height="4" fill="#ccc" transform="matrix(1, 0, 0, 1, -81.980277, -18.923951)"/>
  <rect x="473.05906" y="40.5" width="20" height="4" fill="#ccc" transform="matrix(1, 0, 0, 1, -81.980277, -18.923951)"/>
  <path d="M777.55906,382.16024h-12a4.50507,4.50507,0,0,1-4.5-4.5v-49a4.50508,4.50508,0,0,1,4.5-4.5h12a4.50508,4.50508,0,0,1,4.5,4.5v49A4.50508,4.50508,0,0,1,777.55906,382.16024Z" transform="matrix(1, 0, 0, 1, -354.480277, -262.084184)" fill="#f2f2f2" style="isolation:isolate"/>
  <rect x="489.05906" y="90.5" width="20" height="4" fill="#ccc" transform="matrix(1, 0, 0, 1, -81.980277, -18.923951)"/>
  <rect x="489.05906" y="121.5" width="20" height="4" fill="#ccc" transform="matrix(1, 0, 0, 1, -81.980277, -18.923951)"/>
  <path d="M807.55906,382.16024h-12a4.50507,4.50507,0,0,1-4.5-4.5v-49a4.50508,4.50508,0,0,1,4.5-4.5h12a4.50508,4.50508,0,0,1,4.5,4.5v49A4.50508,4.50508,0,0,1,807.55906,382.16024Z" transform="matrix(1, 0, 0, 1, -354.480277, -262.084184)" fill="#f2f2f2" style="isolation:isolate"/>
  <rect x="519.05906" y="90.5" width="20" height="4" fill="#ccc" transform="matrix(1, 0, 0, 1, -81.980277, -18.923951)"/>
  <rect x="519.05906" y="121.5" width="20" height="4" fill="#ccc" transform="matrix(1, 0, 0, 1, -81.980277, -18.923951)"/>
  <path d="M837.55906,382.16024h-12a4.50507,4.50507,0,0,1-4.5-4.5v-49a4.50508,4.50508,0,0,1,4.5-4.5h12a4.50508,4.50508,0,0,1,4.5,4.5v49A4.50508,4.50508,0,0,1,837.55906,382.16024Z" transform="matrix(1, 0, 0, 1, -354.480277, -262.084184)" fill="#f2f2f2" style="isolation:isolate"/>
  <rect x="549.05906" y="90.5" width="20" height="4" fill="#ccc" transform="matrix(1, 0, 0, 1, -81.980277, -18.923951)"/>
  <rect x="549.05906" y="121.5" width="20" height="4" fill="#ccc" transform="matrix(1, 0, 0, 1, -81.980277, -18.923951)"/>
  <path d="M698.55906,463.16024h-12a4.50507,4.50507,0,0,1-4.5-4.5v-49a4.50508,4.50508,0,0,1,4.5-4.5h12a4.50508,4.50508,0,0,1,4.5,4.5v49A4.50508,4.50508,0,0,1,698.55906,463.16024Z" transform="matrix(1, 0, 0, 1, -354.480277, -262.084184)" fill="#f2f2f2" style="isolation:isolate"/>
  <rect x="410.05906" y="171.5" width="20" height="4" fill="#ccc" transform="matrix(1, 0, 0, 1, -81.980277, -18.923951)"/>
  <rect x="410.05906" y="202.5" width="20" height="4" fill="#ccc" transform="matrix(1, 0, 0, 1, -81.980277, -18.923951)"/>
  <path d="M728.55906,463.16024h-12a4.50507,4.50507,0,0,1-4.5-4.5v-49a4.50508,4.50508,0,0,1,4.5-4.5h12a4.50508,4.50508,0,0,1,4.5,4.5v49A4.50508,4.50508,0,0,1,728.55906,463.16024Z" transform="matrix(1, 0, 0, 1, -354.480277, -262.084184)" fill="#f2f2f2" style="isolation:isolate"/>
  <rect x="440.05906" y="171.5" width="20" height="4" fill="#ccc" transform="matrix(1, 0, 0, 1, -81.980277, -18.923951)"/>
  <rect x="440.05906" y="202.5" width="20" height="4" fill="#ccc" transform="matrix(1, 0, 0, 1, -81.980277, -18.923951)"/>
  <path d="M758.55906,463.16024h-12a4.50507,4.50507,0,0,1-4.5-4.5v-49a4.50508,4.50508,0,0,1,4.5-4.5h12a4.50508,4.50508,0,0,1,4.5,4.5v49A4.50508,4.50508,0,0,1,758.55906,463.16024Z" transform="matrix(1, 0, 0, 1, -354.480277, -262.084184)" fill="#f2f2f2" style="isolation:isolate"/>
  <rect x="470.05906" y="171.5" width="20" height="4" fill="#ccc" transform="matrix(1, 0, 0, 1, -81.980277, -18.923951)"/>
  <rect x="470.05906" y="202.5" width="20" height="4" fill="#ccc" transform="matrix(1, 0, 0, 1, -81.980277, -18.923951)"/>
  <path d="M791.55906,301.16024h-12a4.50507,4.50507,0,0,1-4.5-4.5v-49a4.50508,4.50508,0,0,1,4.5-4.5h12a4.50508,4.50508,0,0,1,4.5,4.5v49A4.50508,4.50508,0,0,1,791.55906,301.16024Z" transform="matrix(1, 0, 0, 1, -354.480277, -262.084184)" fill="#f2f2f2" style="isolation:isolate"/>
  <rect x="503.05906" y="9.5" width="20" height="4" fill="#ccc" transform="matrix(1, 0, 0, 1, -81.980277, -18.923951)"/>
  <rect x="503.05906" y="40.5" width="20" height="4" fill="#ccc" transform="matrix(1, 0, 0, 1, -81.980277, -18.923951)"/>
  <path d="M821.55906,301.16024h-12a4.50507,4.50507,0,0,1-4.5-4.5v-49a4.50508,4.50508,0,0,1,4.5-4.5h12a4.50508,4.50508,0,0,1,4.5,4.5v49A4.50508,4.50508,0,0,1,821.55906,301.16024Z" transform="matrix(1, 0, 0, 1, -354.480277, -262.084184)" fill="#f2f2f2" style="isolation:isolate"/>
  <rect x="533.05906" y="9.5" width="20" height="4" fill="#ccc" transform="matrix(1, 0, 0, 1, -81.980277, -18.923951)"/>
  <rect x="533.05906" y="40.5" width="20" height="4" fill="#ccc" transform="matrix(1, 0, 0, 1, -81.980277, -18.923951)"/>
  <path d="M851.55906,301.16024h-12a4.50507,4.50507,0,0,1-4.5-4.5v-49a4.50508,4.50508,0,0,1,4.5-4.5h12a4.50508,4.50508,0,0,1,4.5,4.5v49A4.50508,4.50508,0,0,1,851.55906,301.16024Z" transform="matrix(1, 0, 0, 1, -354.480277, -262.084184)" fill="#f2f2f2" style="isolation:isolate"/>
  <rect x="563.05906" y="9.5" width="20" height="4" fill="#ccc" transform="matrix(1, 0, 0, 1, -81.980277, -18.923951)"/>
  <rect x="563.05906" y="40.5" width="20" height="4" fill="#ccc" transform="matrix(1, 0, 0, 1, -81.980277, -18.923951)"/>
  <path d="M881.55906,301.16024h-12a4.50507,4.50507,0,0,1-4.5-4.5v-49a4.50508,4.50508,0,0,1,4.5-4.5h12a4.50508,4.50508,0,0,1,4.5,4.5v49A4.50508,4.50508,0,0,1,881.55906,301.16024Z" transform="matrix(1, 0, 0, 1, -354.480277, -262.084184)" fill="#f2f2f2" style="isolation:isolate"/>
  <rect x="593.05906" y="9.5" width="20" height="4" fill="#ccc" transform="matrix(1, 0, 0, 1, -81.980277, -18.923951)"/>
  <rect x="593.05906" y="40.5" width="20" height="4" fill="#ccc" transform="matrix(1, 0, 0, 1, -81.980277, -18.923951)"/>
  <path d="M926.5,302.66024h-285a1,1,0,0,1,0-2h285a1,1,0,0,1,0,2Z" transform="matrix(1, 0, 0, 1, -354.480277, -262.084184)" fill="#ccc"/>
  <path d="M926.5,383.66024h-285a1,1,0,0,1,0-2h285a1,1,0,0,1,0,2Z" transform="matrix(1, 0, 0, 1, -354.480277, -262.084184)" fill="#ccc"/>
  <path d="M926.5,464.66024h-285a1,1,0,0,1,0-2h285a1,1,0,0,1,0,2Z" transform="matrix(1, 0, 0, 1, -354.480277, -262.084184)" fill="#ccc"/>
  <path d="M854.063,453.583a122.04116,122.04116,0,0,1,10.10051-38.51722q2.27961-5.09249,5.01812-9.96076a.7438.7438,0,0,0-1.28354-.75026,123.7286,123.7286,0,0,0-13.7678,37.98231q-1.03367,5.58355-1.55378,11.24593c-.08811.95214,1.39893.94613,1.48649,0Z" transform="matrix(1, 0, 0, 1, -354.480277, -262.084184)" fill="#e6e6e6"/>
  <circle cx="600.2819" cy="154.9144" r="9.4144" fill="#e6e6e6" transform="matrix(1, 0, 0, 1, -81.980277, -18.923951)"/>
  <path d="M855.026,453.83307a79.17357,79.17357,0,0,1,6.55267-24.98791q1.47888-3.30374,3.25549-6.462a.48254.48254,0,0,0-.83269-.48673,80.26825,80.26825,0,0,0-8.93182,24.6409q-.67059,3.6223-1.008,7.29575c-.05716.6177.90755.6138.96436,0Z" transform="matrix(1, 0, 0, 1, -354.480277, -262.084184)" fill="#e6e6e6"/>
  <circle cx="594.66984" cy="174.66195" r="6.10756" fill="#e6e6e6" transform="matrix(1, 0, 0, 1, -81.980277, -18.923951)"/>
  <path d="M853.80883,453.25653a79.17368,79.17368,0,0,1-10.2024-23.73277q-.86592-3.51453-1.40764-7.09749a.48253.48253,0,0,0-.95592.12838,80.26823,80.26823,0,0,0,8.11306,24.92247q1.69918,3.26856,3.69253,6.37254c.33485.5222,1.09311-.07422.76037-.59313Z" transform="matrix(1, 0, 0, 1, -354.480277, -262.084184)" fill="#e6e6e6"/>
  <circle cx="568.73518" cy="174.23322" r="6.10756" fill="#e6e6e6" transform="matrix(1, 0, 0, 1, -81.980277, -18.923951)"/>
  <path d="M835.05906,458.66024v-12a4.50508,4.50508,0,0,1,4.5-4.5h28a4.50508,4.50508,0,0,1,4.5,4.5v12a4.50508,4.50508,0,0,1-4.5,4.5h-28A4.50508,4.50508,0,0,1,835.05906,458.66024Z" transform="matrix(1, 0, 0, 1, -354.480277, -262.084184)" fill="#f2f2f2" style="isolation:isolate"/>
  <path d="M654.5,606.66024h-381a1,1,0,0,1,0-2h381a1,1,0,0,1,0,2Z" transform="matrix(1, 0, 0, 1, -354.480277, -262.084184)" fill="#3f3d56"/>
  <polygon points="173.405 378.826 172.69 366.588 219.556 358.003 220.612 376.067 173.405 378.826" fill="#ffb8b8" transform="matrix(1, 0, 0, 1, -81.980277, -18.923951)"/>
  <path d="M436.62166,598.16324h23.64387a0,0,0,0,1,0,0v14.88687a0,0,0,0,1,0,0H421.7348a0,0,0,0,1,0,0v0A14.88686,14.88686,0,0,1,436.62166,598.16324Z" transform="matrix(0.058355, 0.998296, -0.998296, 0.058355, 665.360116, -132.066171)" fill="#2f2e41"/>
  <polygon points="193.789 378.714 186.004 388.185 145.768 362.666 157.257 348.688 193.789 378.714" fill="#ffb8b8" transform="matrix(1, 0, 0, 1, -81.980277, -18.923951)"/>
  <path d="M454.38952,629.78677h23.64386a0,0,0,0,1,0,0v14.88687a0,0,0,0,1,0,0H439.50266a0,0,0,0,1,0,0v0A14.88686,14.88686,0,0,1,454.38952,629.78677Z" transform="matrix(0.634972, -0.772535, 0.772535, 0.634972, -679.299857, 324.937407)" fill="#2f2e41"/>
  <path d="M443.88663,577.83023l-5.31975,25.07884a4,4,0,0,0,3.84843,4.8295l52.29785.84351a4,4,0,0,0,4.00364-4.69462l-4.57453-25.92236a4,4,0,0,0-3.93914-3.30486H447.79957A4,4,0,0,0,443.88663,577.83023Z" transform="matrix(1, 0, 0, 1, -354.480277, -262.084184)" fill="#2f2e41"/>
  <path d="M452.55906,586.66024s-51-32-61-15c-5,8.5-2.5,16.75,1.25,22.875a34.63053,34.63053,0,0,0,14.4025,12.89112l41.3475,20.23388,15-16-10-9Z" transform="matrix(1, 0, 0, 1, -354.480277, -262.084184)" fill="#2f2e41"/>
  <path d="M478.55906,581.66024s66-19,53,17-62,22-62,22l-5-15,17-12Z" transform="matrix(1, 0, 0, 1, -354.480277, -262.084184)" fill="#2f2e41"/>
  <path d="M473.18454,585.629a131.99386,131.99386,0,0,1-30.25708-3.98633l-.29248-.08007-13.70556-63.04493a23.2247,23.2247,0,0,1,14.93286-26.94335,80.45969,80.45969,0,0,1,51.29956-1.02442h.00024a23.46956,23.46956,0,0,1,15.635,27.76465l-15.30835,63.19531-.21557.10254C488.91135,584.62606,480.956,585.629,473.18454,585.629Z" transform="matrix(1, 0, 0, 1, -354.480277, -262.084184)" fill="#ccc"/>
  <path d="M454.77438,590.52651a10.05573,10.05573,0,0,1,14.47536-5.31221l26.98651-23.42452,2.44163,18.40848-26.00117,19.4221a10.11027,10.11027,0,0,1-17.90233-9.09385Z" transform="matrix(1, 0, 0, 1, -354.480277, -262.084184)" fill="#ffb8b8"/>
  <path d="M480.51218,595.63583a4.53353,4.53353,0,0,1-1.29639-.19043,4.45263,4.45263,0,0,1-2.9624-2.81641l-3.25732-9.22851a4.472,4.472,0,0,1,1.30224-4.90235l36.7688-22.07422L496.573,491.76278l.36865-.08887c.14991-.0371,15.00025-3.417,21.0857,12.81055,4.26147,11.36524,20.03149,36.07715,18.91894,52.77637a14.88461,14.88461,0,0,1-12.322,13.72754l-41.38818,23.71289A4.456,4.456,0,0,1,480.51218,595.63583Z" transform="matrix(1, 0, 0, 1, -354.480277, -262.084184)" fill="#ccc"/>
  <path d="M484.63609,588.33293a10.05575,10.05575,0,0,0-14.47536-5.31221l-26.9865-23.42452-2.44163,18.40848,26.00117,19.4221a10.11027,10.11027,0,0,0,17.90232-9.09385Z" transform="matrix(1, 0, 0, 1, -354.480277, -262.084184)" fill="#ffb8b8"/>
  <path d="M461.60593,595.63583a4.456,4.456,0,0,1-2.72388-.93457l-44.38818-21.71289a14.88461,14.88461,0,0,1-12.322-13.72754c-1.11255-16.69922,17.65747-43.41113,21.91894-54.77637,6.085-16.22754,20.93555-12.84863,21.0857-12.81055l.36865.08887L428.051,558.42391l39.7688,20.07422a4.472,4.472,0,0,1,1.30224,4.90235l-3.25732,9.22851a4.45263,4.45263,0,0,1-2.9624,2.81641A4.5348,4.5348,0,0,1,461.60593,595.63583Z" transform="matrix(1, 0, 0, 1, -354.480277, -262.084184)" fill="#ccc"/>
  <path d="M514.55908,605.66016h-89a7.00818,7.00818,0,0,1-7-7v-49a7.00818,7.00818,0,0,1,7-7h89a7.00817,7.00817,0,0,1,7,7v49A7.00818,7.00818,0,0,1,514.55908,605.66016Z" transform="matrix(1, 0, 0, 1, -354.480277, -262.084184)" fill="#06b6d4"/>
  <circle cx="197.55906" cy="331" r="6" fill="#fff" transform="matrix(1, 0, 0, 1, -81.980277, -18.923951)"/>
  <path d="M305.16247,594.9787A122.0417,122.0417,0,0,1,315.263,556.46148q2.27961-5.09249,5.01813-9.96076a.7438.7438,0,0,0-1.28354-.75026,123.72825,123.72825,0,0,0-13.7678,37.98231q-1.03366,5.58356-1.55378,11.24593c-.08811.95214,1.39893.94613,1.48648,0Z" transform="matrix(1, 0, 0, 1, -354.480277, -262.084184)" fill="#e6e6e6"/>
  <circle cx="51.38142" cy="296.31007" r="9.4144" fill="#06b6d4" transform="matrix(1, 0, 0, 1, -81.980277, -18.923951)"/>
  <path d="M306.1255,595.22874a79.1741,79.1741,0,0,1,6.55267-24.98791q1.47889-3.30373,3.25549-6.462a.48254.48254,0,0,0-.83269-.48673,80.26852,80.26852,0,0,0-8.93181,24.64089q-.67059,3.62232-1.008,7.29576c-.05716.6177.90755.6138.96435,0Z" transform="matrix(1, 0, 0, 1, -354.480277, -262.084184)" fill="#e6e6e6"/>
  <circle cx="45.76935" cy="316.05762" r="6.10756" fill="#06b6d4" transform="matrix(1, 0, 0, 1, -81.980277, -18.923951)"/>
  <path d="M304.90835,594.6522a79.174,79.174,0,0,1-10.20241-23.73277q-.86592-3.51453-1.40763-7.09749a.48253.48253,0,0,0-.95592.12838,80.26809,80.26809,0,0,0,8.11306,24.92246q1.69919,3.26857,3.69252,6.37255c.33485.5222,1.09311-.07422.76038-.59313Z" transform="matrix(1, 0, 0, 1, -354.480277, -262.084184)" fill="#e6e6e6"/>
  <circle cx="19.8347" cy="315.62888" r="6.10756" fill="#06b6d4" transform="matrix(1, 0, 0, 1, -81.980277, -18.923951)"/>
  <path d="M286.15857,600.05591v-12a4.50508,4.50508,0,0,1,4.5-4.5h28a4.50508,4.50508,0,0,1,4.5,4.5v12a4.50508,4.50508,0,0,1-4.5,4.5h-28A4.50508,4.50508,0,0,1,286.15857,600.05591Z" transform="matrix(1, 0, 0, 1, -354.480277, -262.084184)" fill="#f2f2f2" style="isolation:isolate"/>
  <title>working remotely</title>
  <path d="M 245.983 312.179 L 245.633 314.408 L 239.947 350.44 C 225.124 358.121 213.594 350.74 213.493 350.44 L 206.329 314.239 L 205.922 312.179 L 245.983 312.179 Z" fill="#3f3d56" style=""/>
  <path d="M 245.983 312.179 L 245.633 314.408 C 228.933 321.624 211.118 316.008 206.329 314.239 L 205.922 312.179 L 245.983 312.179 Z" opacity="0.1" style=""/>
  <path d="M 205.087 310.222 L 205.087 313.472 C 205.087 313.472 227.174 323.015 247.076 313.472 L 247.076 310.222 L 205.087 310.222 Z" fill="#06b6d4" style=""/>
  <path d="M 207.654 305.928 C 207.654 305.928 207.011 308.123 205.087 308.314 L 205.087 311.08 L 247.076 311.08 L 247.076 308.601 C 247.076 308.601 244.509 308.123 244.889 305.928 L 207.654 305.928 Z" fill="#06b6d4" style=""/>
  <ellipse cx="225.954" cy="306.165" rx="18.939" ry="4.056" fill="#06b6d4" style=""/>
  <ellipse cx="225.954" cy="306.165" rx="18.939" ry="4.056" opacity="0.1" style=""/>
  <path d="M 242.58 305.928 C 242.58 307.554 235.398 308.886 226.531 308.886 L 226.06 308.886 C 220.107 308.853 214.963 308.237 212.339 307.313 C 211.153 306.897 210.48 306.426 210.48 305.928 C 210.48 305.103 212.317 304.356 215.291 303.819 C 218.987 303.219 222.763 302.934 226.545 302.971 C 235.398 302.971 242.58 304.294 242.58 305.928 Z" opacity="0.1" style=""/>
  <path d="M 226.06 308.886 C 220.107 308.853 214.963 308.237 212.339 307.313 L 215.278 303.806 L 226.06 308.886 Z" opacity="0.1" style=""/>
  <path d="M 209.285 306.157 C 209.058 306.12 208.756 306.179 208.713 306.348 C 208.707 306.434 208.737 306.519 208.8 306.592 C 209.301 307.181 210.03 307.644 210.891 307.921 C 211.038 307.982 211.2 308.021 211.368 308.035 C 211.546 308.051 211.72 307.984 211.805 307.866 C 211.853 307.766 211.843 307.656 211.774 307.564 C 211.64 307.388 211.455 307.236 211.232 307.121 C 210.645 306.78 210.047 306.251 209.285 306.157 Z" opacity="0.1" style=""/>
  <circle cx="561.349" cy="1004.986" r="25.83" fill="#06b6d4" style="" transform="matrix(0.437391, 0, 0, 0.325021, -18.935003, 5.859819)"/>
  <path d="M 141.626 168.815 C 136.412 183.488 128.416 196.858 112.122 196.858 C 95.827 196.858 83.535 184.278 82.617 168.815 C 81.444 149.056 95.451 140.688 112.122 140.77 C 131.815 140.867 147.814 151.401 141.626 168.815 Z" fill="#2f2e41" style=""/>
  <rect x="87.78" y="165.085" width="48.26" height="66.85" fill="#2f2e41" style=""/>
  <path d="M 104.711 203.467 C 104.711 203.467 106.254 224.498 102.653 227.92 C 99.051 231.344 134.554 234.279 134.039 230.365 C 133.525 226.453 126.835 201.022 128.893 195.642 C 130.953 190.263 104.711 203.467 104.711 203.467 Z" fill="#ffb8b8" style=""/>
  <path d="M 104.711 203.467 C 104.711 203.467 106.254 224.498 102.653 227.92 C 99.051 231.344 134.554 234.279 134.039 230.365 C 133.525 226.453 126.835 201.022 128.893 195.642 C 130.953 190.263 104.711 203.467 104.711 203.467 Z" opacity="0.1" style=""/>
  <circle cx="413.1465" cy="208.46379" r="44.68548" fill="#ffb8b8" transform="matrix(0.51816, 0, 0, 0.49251, -103.190361, 86.123901)" style=""/>
  <path d="M 135.583 224.008 C 135.583 224.008 127.351 231.344 118.089 229.876 C 108.828 228.41 104.938 217.704 104.938 217.704 L 95.963 224.008 C 95.963 224.008 93.39 241.614 105.226 243.571 C 117.06 245.527 134.039 246.016 137.641 243.571 C 141.243 241.125 135.583 224.008 135.583 224.008 Z" fill="#3f3d56" style=""/>
  <circle cx="415.53311" cy="100.46451" r="22.47685" fill="#2f2e41" transform="matrix(0.51816, 0, 0, 0.49251, -103.190361, 86.123901)" style=""/>
  <path d="M 98.146 129.7 C 98.146 124.016 102.677 119.254 108.627 118.687 C 108.244 118.65 107.856 118.63 107.463 118.63 C 98.498 118.63 92.895 127.856 97.377 135.235 C 99.457 138.66 103.302 140.77 107.463 140.77 C 107.856 140.77 108.244 140.751 108.627 140.714 C 102.677 140.145 98.146 135.385 98.146 129.7 Z" fill="#2f2e41" style=""/>
  <path d="M 100.483 161.834 C 100.483 161.834 100.24 160.548 90.729 163.939 C 81.218 167.328 75.515 192.346 80.272 207.036 C 82.188 212.956 80.628 217.225 78.084 220.211 C 68.536 231.42 72.294 248.252 86.203 254.016 C 86.596 254.178 86.997 254.34 87.405 254.499 L 93.349 257.889 C 93.349 257.889 85.771 248.412 89.564 236.288 C 92.857 225.958 93.263 214.992 90.744 204.467 C 90.309 202.692 89.815 200.862 89.253 198.994 C 84.498 183.174 86.811 185 103.455 169.18 C 103.455 169.18 112.966 175.96 121.288 179.351 C 129.611 182.741 136.744 186.13 130.799 197.431 C 124.855 208.731 110.589 218.901 120.1 233.593 C 129.611 248.284 130.799 242.633 129.611 248.284 L 128.422 253.934 L 135.556 247.154 L 130.799 256.194 C 130.799 256.194 146.256 256.194 151.011 244.893 L 153.389 247.154 C 153.389 247.154 162.9 231.333 145.067 216.643 C 145.067 216.643 139.123 213.252 147.444 201.951 C 155.768 190.651 149.375 166.355 138.674 161.834 C 127.975 157.314 100.483 161.834 100.483 161.834 Z" fill="#2f2e41" style=""/>
  <g transform="matrix(1.137672, 0, 0, 1, -171.102417, 4.953881)" style="">
    <path d="M 280.62 172.582 C 280.467 171.088 279.132 169.946 277.534 169.943 L 274.416 169.943 L 274.416 189.235 L 277.534 189.235 C 279.132 189.231 280.467 188.09 280.62 186.597 C 283.814 185.788 286.034 183.07 286.036 179.965 L 286.036 179.214 C 286.034 176.108 283.814 173.389 280.62 172.582 Z" fill="#06b6d4" style=""/>
    <path d="M 224.28 186.84 L 220.834 186.84 C 216.789 186.84 213.511 183.762 213.511 179.965 L 213.511 179.214 C 213.511 175.416 216.789 172.338 220.834 172.338 L 224.28 172.338 L 224.28 186.84 Z" fill="#06b6d4" style=""/>
    <path d="M 225.131 189.235 L 222.013 189.235 C 220.291 189.235 218.896 187.925 218.896 186.308 L 218.896 172.869 C 218.896 171.254 220.291 169.943 222.013 169.943 L 225.131 169.943 L 225.131 189.235 Z" fill="#06b6d4" style=""/>
    <path d="M 278.951 173.347 L 276.666 173.347 C 276.666 158.195 264.707 145.866 250.008 145.866 C 235.308 145.866 223.349 158.195 223.349 173.347 L 221.064 173.347 C 221.064 157.011 234.048 143.722 250.008 143.722 C 265.967 143.722 278.951 157.011 278.951 173.347 Z" fill="#06b6d4" style=""/>
  </g>
</svg>