<svg width="32" height="32" viewBox="0 0 32 32" fill="none" xmlns="http://www.w3.org/2000/svg">
<rect width="32" height="4" fill="#22D3EE"/>
<rect y="28" width="32" height="4" fill="#22D3EE"/>
<path d="M28.5867 13.8123H30.8979C30.3948 10.9677 27.9086 9 24.6859 9C20.8216 9 18 11.8446 18 16.5071C18 21.1269 20.7414 24 24.788 24C28.4117 24 31 21.6759 31 17.99V16.3289H25.1307V18.1469H28.82C28.7689 20.4995 27.1795 21.9895 24.788 21.9895C22.1559 21.9895 20.2384 20.0433 20.2384 16.4929C20.2384 12.9567 22.1705 11.0105 24.7005 11.0105C26.6837 11.0105 28.0252 12.0798 28.5867 13.8123Z" fill="black"/>
<path d="M1 9V24H3.12223V13.1382H3.25938L7.61935 23.978H9.38065L13.7406 13.1455H13.8778V24H16V9H13.2931L8.58662 20.6602H8.41338L3.70693 9H1Z" fill="black"/>
</svg>
